<?xml version="1.0" encoding="utf-8"?>
<!-- Uploaded to: SVG Repo, www.svgrepo.com, Generator: SVG Repo Mixer Tools -->
<svg width="800px" height="800px" viewBox="0 0 1024 1024" class="icon"  version="1.1" xmlns="http://www.w3.org/2000/svg"><path d="M627.2 256v204.8h-44.8v-160H269.3632c-25.216 0-45.3632 20.1472-45.3632 45.3632v235.776a90.8032 90.8032 0 0 1 45.9264-12.3392H473.6V614.4h-203.6736c-23.936 0-43.8528 18.688-45.7728 42.1632l-0.1536 3.7632v42.5472c0 25.216 20.736 45.9264 45.9264 45.9264H473.6V793.6h-204.2368A90.112 90.112 0 0 1 179.2 703.4368V346.1632A90.112 90.112 0 0 1 269.3632 256H627.2z m-153.6 403.1744v44.8l-204.8 0.0256v-44.8l204.8-0.0256zM716.8 300.8V460.8h-44.8v-160H716.8z" fill="#ED892D" /><path d="M655.0016 502.2208a49.28 49.28 0 0 1 69.1456-3.1488l3.2512 3.1488 135.5008 142.8992c9.984 10.5472 9.984 27.648 0 38.1696a24.6272 24.6272 0 0 1-33.792 2.2528l-2.4064-2.2528L691.2 540.416l-135.5008 142.8992a24.6784 24.6784 0 0 1-36.1984 0 28.1088 28.1088 0 0 1-2.1248-35.6352l2.1248-2.56 135.5008-142.8736z" fill="#BE4BDB" /><path d="M793.6 588.8a25.6 25.6 0 0 1 25.4208 22.6048L819.2 614.4v128a51.2 51.2 0 0 1-47.36 51.072L768 793.6h-153.6a51.2 51.2 0 0 1-51.072-47.36L563.2 742.4v-128a25.6 25.6 0 0 1 51.0208-2.9952L614.4 614.4v128h153.6v-128a25.6 25.6 0 0 1 25.6-25.6z" fill="#BE4BDB" /></svg>