<?xml version="1.0" encoding="utf-8"?>
<!-- Generator: Adobe Illustrator 27.5.0, SVG Export Plug-In . SVG Version: 6.00 Build 0)  -->
<svg version="1.1" xmlns="http://www.w3.org/2000/svg" xmlns:xlink="http://www.w3.org/1999/xlink" x="0px" y="0px"
	 viewBox="0 0 500 500" style="enable-background:new 0 0 500 500;" xml:space="preserve">
<g id="Background_Simple">
	<g>
		<path style="opacity:0.7;fill:#FFFFFF;" d="M67.931,167.086c0,0-27.877,71.988,11.297,144.503
			c39.174,72.516,119.879,110.802,184.469,143.548c64.59,32.746,131.661,16.799,163.534-36.838
			c31.873-53.637-11.845-91.928-11.897-168.418c-0.051-76.49,11.447-96.742-29.963-161.364
			c-41.41-64.623-143.059-78.925-219.9-30.996C88.631,105.45,67.931,167.086,67.931,167.086z"/>
	</g>
	<g>
		<path style="fill:#92E3A9;" d="M211.583,464.361C88.799,443.604,106.336,375.857,68.801,298.624
			c-37.534-77.233-41.611-108.858-2.18-176.216c39.431-67.359,123.043-106.352,199.54-51.797
			c76.497,54.555,133.292,36.3,179.366,79.017c46.073,42.717,51.455,103.332-4.88,158.345
			C384.312,362.985,362.981,489.956,211.583,464.361z"/>
		<path style="opacity:0.7;fill:#FFFFFF;" d="M211.583,464.361C88.799,443.604,106.336,375.857,68.801,298.624
			c-37.534-77.233-41.611-108.858-2.18-176.216c39.431-67.359,123.043-106.352,199.54-51.797
			c76.497,54.555,133.292,36.3,179.366,79.017c46.073,42.717,51.455,103.332-4.88,158.345
			C384.312,362.985,362.981,489.956,211.583,464.361z"/>
	</g>
</g>
<g id="Character">
	<g>
		<g>
			<path id="XMLID_181_" style="fill:#FFFFFF;" d="M315.611,464.201c0,0-21.939-4.828-26.099-15.895
				c-4.16-11.067,3.813-39.203,5.547-66.938H204.94c1.733,27.735,9.707,55.871,5.547,66.938
				c-4.16,11.067-26.099,15.895-26.099,15.895s45.646,21.305,62.072,21.568C264.568,486.06,315.611,464.201,315.611,464.201z"/>
			<path style="opacity:0.4;fill:#92E3A9;" d="M193.204,461.483c3.47,0.911,7.598,1.91,11.655,2.717
				c6.529,1.306,12.882,2.103,16.028,1.201c0.903-0.263,1.691-0.675,2.366-1.201c5.32-4.11,4.259-15.231,4.259-15.231
				c41.337-3.067,58.934-40.066,59.477-41.223c-4.268,16.291-14.442,42.967-11.576,53.711c0.324,1.227,0.876,2.121,1.604,2.743
				c2.138,1.849,5.758,1.341,9.43,0c5.994-2.182,12.129-6.59,12.129-6.59c-4.058-2.392-7.624-5.477-9.061-9.307
				c-4.163-11.059,3.812-39.199,5.547-66.935h-90.123c1.735,27.736,9.71,55.876,5.547,66.935
				C208.093,454.674,199.803,458.977,193.204,461.483z"/>
			<path id="XMLID_184_" style="fill:none;stroke:#263238;stroke-miterlimit:10;" d="M315.611,464.201
				c0,0-21.939-4.828-26.099-15.895c-4.16-11.067,3.813-39.203,5.547-66.938H204.94c1.733,27.735,9.707,55.871,5.547,66.938
				c-4.16,11.067-26.099,15.895-26.099,15.895"/>
			<path style="fill:#263238;" d="M291.485,398.23c0,0-22.912,28.783-29.216,32.814c-8.266,5.284-26.186,5.034-30.388,0.527
				s-24.351-29.669-24.168-35.574C208.047,385.244,291.485,398.23,291.485,398.23z"/>
		</g>
		<g>
			<g>
				<g>
					<defs>
						<path id="XMLID_178_" d="M199.484,341.096c0,0-7.019-9.788-10.696-10.574c-2.2-0.47-6.934,2.6-7.28,5.287
							c-0.347,2.687,3.12,17.594,2.08,20.715c-1.04,3.12,4.573,11.863,8.648,16.585c4.075,4.722,5.2,7.481,7.974,3.668"/>
					</defs>
					<use xlink:href="#XMLID_178_"  style="overflow:visible;fill:#FFFFFF;"/>
					<clipPath id="XMLID_00000144298203228216349790000005339062498801309620_">
						<use xlink:href="#XMLID_178_"  style="overflow:visible;"/>
					</clipPath>
					<path style="opacity:0.4;clip-path:url(#XMLID_00000144298203228216349790000005339062498801309620_);fill:#92E3A9;" d="
						M183.591,356.524c-1.043,3.12,4.575,11.866,8.65,16.581c4.075,4.724,5.197,7.484,7.966,3.672
						c-2.997,1.13-5.319-5.118-3.935-6.327c1.385-1.209,0.333-16.239-1.63-18.57c-1.972-2.322-4.259-18.009-7.729-19.043
						c-1.385-0.412-3.339,0.701-5.197,2.208c-0.105,0.254-0.175,0.508-0.21,0.762C181.163,338.497,184.625,353.404,183.591,356.524z
						"/>
					
						<use xlink:href="#XMLID_178_"  style="overflow:visible;fill:none;stroke:#263238;stroke-linecap:round;stroke-linejoin:round;stroke-miterlimit:10;"/>
				</g>
				<path style="fill:none;stroke:#263238;stroke-linecap:round;stroke-linejoin:round;stroke-miterlimit:10;" d="M184.628,343.523
					c0,0-1.04-4.449,1.213-5.605c2.253-1.156,5.118,12.951,6.934,14.272c1.815,1.32,0.52,4.68,0,6.587
					c-0.52,1.907,1.56,2.427,1.733,3.814c0.173,1.387,0.347,2.947-0.693,3.294c-1.04,0.347-4.68-2.254-5.72-4.334
					c-1.04-2.08-1.56-8.32-1.56-8.32"/>
				<path style="fill:none;stroke:#263238;stroke-linecap:round;stroke-linejoin:round;stroke-miterlimit:10;" d="M191.032,348.667
					c0,0-2.59-0.984-2.937,1.962"/>
			</g>
			<g>
				<g>
					<defs>
						<path id="XMLID_179_" d="M300.516,341.096c0,0,7.019-9.788,10.696-10.574c2.2-0.47,6.934,2.6,7.28,5.287
							c0.347,2.687-3.12,17.594-2.08,20.715c1.04,3.12-4.573,11.863-8.648,16.585c-4.075,4.722-5.2,7.481-7.974,3.668"/>
					</defs>
					<use xlink:href="#XMLID_179_"  style="overflow:visible;fill:#FFFFFF;"/>
					<clipPath id="XMLID_00000100369764807827753510000016809575189013264257_">
						<use xlink:href="#XMLID_179_"  style="overflow:visible;"/>
					</clipPath>
					<path style="opacity:0.4;clip-path:url(#XMLID_00000100369764807827753510000016809575189013264257_);fill:#92E3A9;" d="
						M299.803,376.785c2.76,3.795,3.882,1.043,7.957-3.681c4.075-4.715,9.692-13.461,8.65-16.581
						c-1.034-3.12,2.427-18.026,2.086-20.717c-0.035-0.245-0.096-0.491-0.202-0.745c-1.867-1.507-3.838-2.646-5.223-2.226
						c-3.47,1.034-5.766,16.721-7.729,19.043c-1.963,2.331-3.023,17.36-1.639,18.57
						C305.087,371.649,302.782,377.854,299.803,376.785z"/>
					
						<use xlink:href="#XMLID_179_"  style="overflow:visible;fill:none;stroke:#263238;stroke-linecap:round;stroke-linejoin:round;stroke-miterlimit:10;"/>
				</g>
				<path style="fill:none;stroke:#263238;stroke-linecap:round;stroke-linejoin:round;stroke-miterlimit:10;" d="M315.372,343.523
					c0,0,1.04-4.449-1.213-5.605c-2.253-1.156-5.118,12.951-6.934,14.272c-1.815,1.32-0.52,4.68,0,6.587
					c0.52,1.907-1.56,2.427-1.733,3.814c-0.173,1.387-0.347,2.947,0.693,3.294c1.04,0.347,4.68-2.254,5.72-4.334
					c1.04-2.08,1.56-8.32,1.56-8.32"/>
				<path style="fill:none;stroke:#263238;stroke-linecap:round;stroke-linejoin:round;stroke-miterlimit:10;" d="M308.968,348.667
					c0,0,2.591-0.984,2.937,1.962"/>
			</g>
		</g>
		<g>
			<defs>
				<path id="XMLID_180_" d="M306.875,301.339c-1.23-15.286-11.21-47.426-56.718-47.632v-0.005c-0.053,0-0.104,0.002-0.157,0.002
					c-0.053,0-0.104-0.002-0.157-0.002v0.005c-45.508,0.206-55.488,32.346-56.718,47.632c-1.233,15.322,5.255,72.114,7.555,82.85
					c2.466,11.51,14.088,19.969,26.197,32.638c8.758,9.163,10.112,10.337,22.966,10.471v0.006c0.054,0,0.104-0.003,0.157-0.003
					c0.053,0,0.103,0.003,0.157,0.003v-0.006c12.854-0.134,14.208-1.308,22.966-10.471c12.11-12.669,23.732-21.128,26.198-32.638
					C301.621,373.454,308.108,316.661,306.875,301.339z"/>
			</defs>
			<use xlink:href="#XMLID_180_"  style="overflow:visible;fill:#FFFFFF;"/>
			<clipPath id="XMLID_00000119814081428657163250000018107796430985155476_">
				<use xlink:href="#XMLID_180_"  style="overflow:visible;"/>
			</clipPath>
			<g style="clip-path:url(#XMLID_00000119814081428657163250000018107796430985155476_);">
				<path style="opacity:0.4;fill:#92E3A9;" d="M250.077,371.219c-5.114,0-7.309-3.371-8.927-3.371
					c-1.618,0-4.388,0.636-4.388,0.636s0.5-4.938,3.418-6.934c0,0-8.742,4.493-9.68,6.934c-0.939,2.441,0,12.885,0,12.885
					s3.882-7.649,4.784-6.848c4.56,4.048,10.714,4.048,10.714,4.048l-1.001,2.8l4.492,1.965c0,0-1-3.982,0.512-4.764
					c1.512-0.783,4.003,0.835,4.003,0.835s8.266-2.022,10.714-4.884c1.241-1.45,3.402,6.848,3.402,6.848s1.162-10.472,0-14.041
					s-7.498-5.778-7.498-5.778s3.898,4.16,2.617,6.934c0,0-1.855-1.069-5.448-0.376C257.526,368.16,253.346,371.219,250.077,371.219
					z"/>
				<path style="opacity:0.4;fill:#92E3A9;" d="M267.409,389.826c0,0,1.264-1.927-11.968-4.065L250,387.378l-5.441-1.618
					c0,0-11.345,1.601-13.001,4.065c0,0,9.028,0.669,15.3-0.167l3.142,1.144l3.142-1.144
					C253.142,389.659,265.22,390.135,267.409,389.826z"/>
				<path style="opacity:0.4;fill:#92E3A9;" d="M264.717,394.609c0,0-1.174,3.748-4.56,4.961c-3.387,1.213-16.725,2.08-19.763,0
					c-3.038-2.08-5.111-4.961-5.111-4.961s6.214,1.976,14.717,0.695C258.503,394.023,260.01,397.275,264.717,394.609z"/>
				<path style="opacity:0.4;fill:#92E3A9;" d="M275.417,326.708c-0.619-1.502-11.297-0.989-12.271,0
					c-0.974,0.989-6.274,7.722-7.546,12.493c-1.272,4.771-1.647,11.968-1.43,14.617c0.217,2.65,4.854-2.461,6.76-5.31
					c1.907-2.849,0.597-7.099,1.339-9.307c0.742-2.208,5.172,3.088,5.172,3.088s-3.869-5.296-2.677-7.896
					C265.957,331.793,275.417,326.708,275.417,326.708z"/>
				<path style="opacity:0.4;fill:#92E3A9;" d="M242.382,336.647c0,0-5.506-9.48-7.1-10.316c-1.593-0.836-5.901-0.955-6.941,0
					c-1.04,0.956-2.517,4.384-0.825,4.143S242.556,341.674,242.382,336.647z"/>
				<path style="opacity:0.4;fill:#92E3A9;" d="M299.321,384.19c-1.639,7.677-7.361,13.995-14.582,21.12
					c2.042-8.509,2.708-19.359,2.725-28.104c0.035-14.214,6.555-22.881,8.877-28.42c2.331-5.547-4.276-8.623-4.276-8.623
					s-6.021-7.326-4.285-8.369c1.735-1.043,4.732-9.359,4.732-9.359l3.83-0.184c-2.226-4.461-5.091-13.338-3.83-17.133
					c1.262-3.794-2.305-16.659-2.305-16.659l15.984,7.721c0.342,1.867,0.561,3.602,0.684,5.162
					C308.11,316.659,301.617,373.455,299.321,384.19z"/>
				<path style="opacity:0.4;fill:#92E3A9;" d="M215.262,405.31c-7.221-7.125-12.944-13.443-14.582-21.12
					c-2.296-10.735-8.79-67.531-7.554-82.85c0.123-1.56,0.342-3.295,0.684-5.162l15.984-7.721c0,0-3.567,12.865-2.305,16.659
					c1.262,3.795-1.604,12.672-3.83,17.133l3.83,0.184c0,0,2.997,8.316,4.732,9.359c1.735,1.043-4.285,8.369-4.285,8.369
					s-6.608,3.076-4.277,8.623c2.322,5.539,8.842,14.206,8.877,28.42C212.554,385.951,213.22,396.8,215.262,405.31z"/>
			</g>
			
				<use xlink:href="#XMLID_180_"  style="overflow:visible;fill:none;stroke:#263238;stroke-linecap:round;stroke-linejoin:round;stroke-miterlimit:10;"/>
		</g>
		<g>
			<path style="fill:#263238;" d="M263.481,323.212c0.452-1.912,2.091-3.4,4.191-3.819c5.321-1.063,12.566-2.639,19.099-0.658
				c9.147,2.773,8.805,7.974,8.805,7.974s-2.707-4.975-8.805-4.394c-6.098,0.581-23.625,2.314-23.625,2.314L263.481,323.212z"/>
			<path style="fill:#263238;" d="M286.807,339.912c0,0-3.159,4.512-10.948,4.434c-7.789-0.078-10.145-4.462-10.145-4.462
				l3.334,1.167c0,0,6.596,3.136,14.563-0.455L286.807,339.912z"/>
			<path style="fill:none;stroke:#263238;stroke-linecap:round;stroke-linejoin:round;stroke-miterlimit:10;" d="M267.428,336.14
				c0,0,3.81-4.099,7.031-4.226"/>
			<path style="fill:none;stroke:#263238;stroke-linecap:round;stroke-linejoin:round;stroke-miterlimit:10;" d="M255.005,341.096
				c-2.253,6.24,0,20.454,0,20.454"/>
			<path style="fill:none;stroke:#263238;stroke-linecap:round;stroke-linejoin:round;stroke-miterlimit:10;" d="M268.093,339.109
				c0,0,8.309,3.462,15.234,0"/>
			<path style="fill:none;stroke:#263238;stroke-linecap:round;stroke-linejoin:round;stroke-miterlimit:10;" d="M261.322,330.522
				c0,0,2.696-4.622,4.988-5.027"/>
			<path style="fill:#263238;" d="M236.519,323.212c-0.452-1.912-2.091-3.4-4.191-3.819c-5.321-1.063-12.566-2.639-19.099-0.658
				c-9.147,2.773-8.805,7.974-8.805,7.974s2.707-4.975,8.805-4.394c6.098,0.581,23.625,2.314,23.625,2.314L236.519,323.212z"/>
			<path style="fill:#263238;" d="M214.192,339.912c0,0,3.159,4.512,10.948,4.434c7.789-0.078,10.145-4.462,10.145-4.462
				l-3.334,1.167c0,0-6.596,3.136-14.563-0.455L214.192,339.912z"/>
			<path style="fill:none;stroke:#263238;stroke-linecap:round;stroke-linejoin:round;stroke-miterlimit:10;" d="M233.572,336.14
				c0,0-3.81-4.099-7.031-4.226"/>
			<path style="fill:none;stroke:#263238;stroke-linecap:round;stroke-linejoin:round;stroke-miterlimit:10;" d="M232.907,339.109
				c0,0-8.309,3.462-15.234,0"/>
			<path style="fill:none;stroke:#263238;stroke-linecap:round;stroke-linejoin:round;stroke-miterlimit:10;" d="M233.69,325.495
				c7.409,1.213,11.306,15.601,11.306,15.601c2.254,6.24,0,20.454,0,20.454"/>
			<path style="fill:none;stroke:#263238;stroke-linecap:round;stroke-linejoin:round;stroke-miterlimit:10;" d="M243.134,368.619
				c0,0,2.446,2.6,6.943,2.6c4.497,0,6.789-2.6,6.789-2.6"/>
			<g>
				<path style="fill:#263238;" d="M253.613,376.173c0,0,1.558-1.908,3.137-2.847c1.578-0.939,2.637,0.792,2.637,0.792
					s-2.027,1.913-3.565,1.608L253.613,376.173z"/>
				<path style="fill:#263238;" d="M246.387,376.173c0,0-1.558-1.908-3.137-2.847c-1.578-0.939-2.637,0.792-2.637,0.792
					s2.027,1.913,3.565,1.608L246.387,376.173z"/>
			</g>
			<g>
				<path style="fill:none;stroke:#263238;stroke-linecap:round;stroke-linejoin:round;stroke-miterlimit:10;" d="M240.179,375.737
					c0,0-4.71-1.359-4.884-3.613c-0.173-2.253,1.466-3.64,1.466-3.64"/>
				<path style="fill:none;stroke:#263238;stroke-linecap:round;stroke-linejoin:round;stroke-miterlimit:10;" d="M259.821,375.737
					c0,0,4.71-1.359,4.884-3.613c0.173-2.253-1.466-3.64-1.466-3.64"/>
			</g>
			<path style="fill:none;stroke:#263238;stroke-linecap:round;stroke-linejoin:round;stroke-miterlimit:10;" d="M269.501,391.157
				c0,0-0.951-2.092-2.092-1.331c-1.141,0.761-13.696-0.523-14.266-0.167c-0.285,0.178-3.142,1.144-3.142,1.144
				s-2.857-0.966-3.142-1.144c-0.571-0.357-13.125,0.927-14.266,0.167c-1.141-0.761-2.092,1.331-2.092,1.331"/>
			<path style="fill:none;stroke:#263238;stroke-linecap:round;stroke-linejoin:round;stroke-miterlimit:10;" d="M266.188,393.224
				c0,0-2.311,2.773-4.854,2.773c-2.542,0-5.335-0.693-11.335-0.693c-6,0-8.792,0.693-11.335,0.693
				c-2.542,0-4.854-2.773-4.854-2.773"/>
			<path style="fill:none;stroke:#263238;stroke-linecap:round;stroke-linejoin:round;stroke-miterlimit:10;" d="M266.188,387.841
				c0,0-8.552-1.965-10.747-2.08L250,387.378l-5.441-1.618c-2.196,0.116-10.747,2.08-10.747,2.08"/>
		</g>
		<path style="fill:#263238;" d="M305.36,267.117c-9.607-11.941-35.147-21.3-59.472-17.661c0,0,6.866-2.601,10.685-2.601
			c0,0-18.31-0.625-24.014,4.854l5.704-5.479c0,0-19.745,5.509-23.984,12.948l4.239-7.439c0,0-2.914,1.25-6.663,3.222v-0.014
			c-7.575,3.254-13.751,7.512-17.498,12.169c-9.607,11.941-5.126,38.001-5.126,38.001c-1.559,29.488,7.799,51.735,7.799,51.735
			c-0.902-10.925,1.753-39.065,1.753-39.065s5.037-2.982,4.985-7.794c-0.051-4.813,2.969-19.455,8.516-19.802
			c5.547-0.347,36.742,6.146,36.742,6.146s0.293-0.109,0.832-0.314c0.535,0.203,0.832,0.314,0.832,0.314s31.195-6.493,36.742-6.146
			c5.547,0.347,8.567,14.989,8.516,19.802c-0.051,4.813,4.985,7.794,4.985,7.794s2.655,28.141,1.753,39.065
			c0,0,9.358-22.247,7.799-51.735C310.486,305.117,314.967,279.058,305.36,267.117z"/>
		<g>
			<path style="opacity:0.3;fill:none;stroke:#FFFFFF;stroke-linecap:round;stroke-linejoin:round;stroke-miterlimit:10;" d="
				M251.022,290.039c0,0-9.766-13.545-2.432-26.204"/>
			<path style="opacity:0.3;fill:none;stroke:#FFFFFF;stroke-linecap:round;stroke-linejoin:round;stroke-miterlimit:10;" d="
				M243.427,290.039c0,0-13.714-10.116-13.532-21.193"/>
			<path style="opacity:0.3;fill:none;stroke:#FFFFFF;stroke-linecap:round;stroke-linejoin:round;stroke-miterlimit:10;" d="
				M233.69,288.659c0,0-18.634-4.707-20.75-13.842"/>
			<path style="opacity:0.3;fill:none;stroke:#FFFFFF;stroke-linecap:round;stroke-linejoin:round;stroke-miterlimit:10;" d="
				M261.322,290.039c0,0,0-12.682,9.059-19.347"/>
			<path style="opacity:0.3;fill:none;stroke:#FFFFFF;stroke-linecap:round;stroke-linejoin:round;stroke-miterlimit:10;" d="
				M270.381,288.659c0,0,3.508-7.152,12.436-8.856"/>
		</g>
	</g>
</g>
<g id="Mind_map">
	<g>
		<g>
			<g>
				<path style="fill:none;stroke:#263238;stroke-linecap:round;stroke-linejoin:round;stroke-miterlimit:10;" d="M384.595,109.795
					v-6.145l-4.603-0.397c-0.274-0.971-0.655-1.896-1.138-2.759l2.972-3.532l-4.345-4.345l-3.532,2.972
					c-0.862-0.483-1.787-0.864-2.758-1.138l-0.397-4.603h-6.145l-0.397,4.603c-0.971,0.274-1.896,0.655-2.758,1.138l-3.532-2.972
					l-4.345,4.345l2.972,3.532c-0.483,0.862-0.864,1.787-1.138,2.759l-4.603,0.397v6.145l4.603,0.397
					c0.274,0.971,0.655,1.896,1.138,2.759l-2.972,3.532l4.345,4.345l3.532-2.972c0.862,0.483,1.787,0.864,2.759,1.138l0.397,4.603
					h6.145l0.397-4.603c0.971-0.274,1.896-0.655,2.759-1.138l3.532,2.972l4.345-4.345l-2.972-3.532
					c0.483-0.862,0.864-1.787,1.138-2.758L384.595,109.795z M367.72,113.864c-3.944,0-7.141-3.197-7.141-7.141
					s3.197-7.141,7.141-7.141c3.944,0,7.141,3.197,7.141,7.141S371.664,113.864,367.72,113.864z"/>
				<path style="fill:none;stroke:#263238;stroke-linecap:round;stroke-linejoin:round;stroke-miterlimit:10;" d="M407.928,123.513
					v-4.373l-3.276-0.282c-0.195-0.691-0.466-1.349-0.81-1.963l2.115-2.514l-3.092-3.092l-2.513,2.114
					c-0.614-0.344-1.272-0.615-1.963-0.81l-0.282-3.276h-4.373l-0.282,3.276c-0.691,0.195-1.349,0.466-1.963,0.81l-2.513-2.114
					l-3.092,3.092l2.115,2.513c-0.344,0.614-0.615,1.272-0.81,1.963l-3.276,0.282v4.373l3.276,0.282
					c0.195,0.691,0.466,1.349,0.81,1.963l-2.115,2.513l3.092,3.092l2.513-2.115c0.614,0.344,1.272,0.615,1.963,0.81l0.282,3.276
					h4.373l0.282-3.276c0.691-0.195,1.349-0.466,1.963-0.81l2.513,2.115l3.092-3.092l-2.115-2.513
					c0.344-0.614,0.615-1.272,0.81-1.963L407.928,123.513z M395.92,126.408c-2.806,0-5.081-2.275-5.081-5.082
					c0-2.806,2.275-5.081,5.081-5.081s5.081,2.275,5.081,5.081C401.002,124.133,398.727,126.408,395.92,126.408z"/>
				<path style="fill:none;stroke:#263238;stroke-linecap:round;stroke-linejoin:round;stroke-miterlimit:10;" d="M383.537,136.699
					v-3.112l-2.331-0.201c-0.139-0.492-0.332-0.96-0.576-1.397l1.505-1.788l-2.2-2.2l-1.788,1.505
					c-0.437-0.245-0.905-0.438-1.397-0.576l-0.201-2.331h-3.112l-0.201,2.331c-0.492,0.139-0.96,0.332-1.397,0.576l-1.788-1.505
					l-2.2,2.2l1.505,1.788c-0.245,0.437-0.438,0.905-0.576,1.397l-2.331,0.201v3.112l2.331,0.201
					c0.139,0.492,0.332,0.96,0.576,1.397l-1.505,1.789l2.2,2.2l1.788-1.505c0.437,0.245,0.905,0.438,1.397,0.576l0.201,2.331h3.112
					l0.201-2.331c0.492-0.139,0.96-0.331,1.397-0.576l1.788,1.505l2.2-2.2l-1.505-1.789c0.245-0.437,0.438-0.905,0.576-1.397
					L383.537,136.699z M374.992,138.759c-1.997,0-3.616-1.619-3.616-3.616c0-1.997,1.619-3.616,3.616-3.616
					c1.997,0,3.616,1.619,3.616,3.616C378.608,137.14,376.989,138.759,374.992,138.759z"/>
			</g>
			<g>
				<path style="fill:none;stroke:#263238;stroke-linecap:round;stroke-linejoin:round;stroke-miterlimit:10;" d="M335.237,116.768
					c0-24.383,19.767-44.15,44.15-44.15"/>
				<path style="fill:none;stroke:#263238;stroke-linecap:round;stroke-linejoin:round;stroke-miterlimit:10;" d="M393.414,158.642
					c-4.407,1.476-9.124,2.275-14.027,2.275c-12.534,0-23.849-5.223-31.885-13.612c-5.829-6.085-9.933-13.834-11.528-22.464"/>
				<path style="fill:none;stroke:#263238;stroke-linecap:round;stroke-linejoin:round;stroke-miterlimit:10;" d="M405.677,152.239
					c-1.983,1.472-4.093,2.782-6.312,3.91"/>
				<path style="fill:none;stroke:#263238;stroke-linecap:round;stroke-linejoin:round;stroke-miterlimit:10;" d="M423.536,116.768
					c0,12.192-4.942,23.229-12.931,31.219"/>
				<path style="fill:none;stroke:#263238;stroke-linecap:round;stroke-linejoin:round;stroke-miterlimit:10;" d="M388.284,73.515
					c8.772,1.795,16.596,6.191,22.631,12.347c1.91,1.949,3.641,4.073,5.166,6.348"/>
			</g>
		</g>
		<g>
			<g>
				
					<line style="fill:none;stroke:#263238;stroke-linecap:round;stroke-linejoin:round;stroke-miterlimit:10;" x1="107.663" y1="100.336" x2="105.222" y2="103.687"/>
				
					<line style="fill:none;stroke:#263238;stroke-linecap:round;stroke-linejoin:round;stroke-miterlimit:10;" x1="102.661" y1="101.822" x2="105.101" y2="98.47"/>
				
					<ellipse transform="matrix(0.9835 -0.1808 0.1808 0.9835 -13.6409 22.4059)" style="fill:none;stroke:#263238;stroke-linecap:round;stroke-linejoin:round;stroke-miterlimit:10;" cx="116.111" cy="86.045" rx="16.529" ry="16.529"/>
				<path style="fill:none;stroke:#263238;stroke-linecap:round;stroke-linejoin:round;stroke-miterlimit:10;" d="M86.408,126.83
					L86.408,126.83c-1.138-0.829-1.389-2.423-0.56-3.561l14.867-20.413c0.829-1.138,2.423-1.389,3.56-0.56l0,0
					c1.138,0.829,1.389,2.423,0.56,3.561l-14.867,20.414C89.14,127.408,87.545,127.659,86.408,126.83z"/>
				<path style="fill:none;stroke:#263238;stroke-linecap:round;stroke-linejoin:round;stroke-miterlimit:10;" d="M127.703,94.487
					c-4.663,6.402-13.632,7.813-20.035,3.15c-6.402-4.663-7.813-13.632-3.15-20.035c4.663-6.402,13.632-7.813,20.035-3.15
					C130.955,79.115,132.366,88.085,127.703,94.487z"/>
			</g>
			<g>
				<path style="fill:none;stroke:#263238;stroke-linecap:round;stroke-linejoin:round;stroke-miterlimit:10;" d="M90.397,138.184
					c-22.11-10.282-31.698-36.54-21.416-58.649"/>
				<path style="fill:none;stroke:#263238;stroke-linecap:round;stroke-linejoin:round;stroke-miterlimit:10;" d="M152.898,103.089
					c-0.52,4.618-1.784,9.232-3.852,13.679c-5.285,11.365-14.793,19.422-25.788,23.172c-7.975,2.72-16.733,3.174-25.23,0.981"/>
				<path style="fill:none;stroke:#263238;stroke-linecap:round;stroke-linejoin:round;stroke-miterlimit:10;" d="M152.264,89.269
					c0.499,2.419,0.796,4.884,0.883,7.372"/>
				<path style="fill:none;stroke:#263238;stroke-linecap:round;stroke-linejoin:round;stroke-miterlimit:10;" d="M127.63,58.118
					c11.055,5.141,18.979,14.276,22.855,24.889"/>
				<path style="fill:none;stroke:#263238;stroke-linecap:round;stroke-linejoin:round;stroke-miterlimit:10;" d="M73.546,71.844
					c5.326-7.197,12.612-12.438,20.739-15.314c2.572-0.91,5.229-1.584,7.934-2.008"/>
			</g>
		</g>
		<g>
			<g>
				<path style="fill:none;stroke:#263238;stroke-linecap:round;stroke-linejoin:round;stroke-miterlimit:10;" d="M36.217,208.346
					c0-18.288,14.825-33.112,33.112-33.112"/>
				<path style="fill:none;stroke:#263238;stroke-linecap:round;stroke-linejoin:round;stroke-miterlimit:10;" d="M79.85,239.752
					c-3.305,1.107-6.843,1.706-10.521,1.706c-9.401,0-17.887-3.918-23.914-10.209c-4.372-4.563-7.45-10.376-8.646-16.848"/>
				<path style="fill:none;stroke:#263238;stroke-linecap:round;stroke-linejoin:round;stroke-miterlimit:10;" d="M89.048,234.95
					c-1.487,1.104-3.07,2.086-4.734,2.932"/>
				<path style="fill:none;stroke:#263238;stroke-linecap:round;stroke-linejoin:round;stroke-miterlimit:10;" d="M102.442,208.346
					c0,9.144-3.706,17.422-9.698,23.414"/>
				<path style="fill:none;stroke:#263238;stroke-linecap:round;stroke-linejoin:round;stroke-miterlimit:10;" d="M76.003,175.906
					c6.579,1.346,12.447,4.643,16.973,9.26c1.433,1.461,2.731,3.055,3.875,4.761"/>
			</g>
			<g>
				<path style="fill:none;stroke:#263238;stroke-linecap:round;stroke-linejoin:round;stroke-miterlimit:10;" d="M82.625,201.586
					c0-7.343-5.953-13.296-13.296-13.296s-13.296,5.953-13.296,13.296c0,4.982,2.745,9.318,6.801,11.596l0.433,1.701h12.125
					l0.433-1.701C79.881,210.904,82.625,206.568,82.625,201.586z"/>
				<path style="fill:none;stroke:#263238;stroke-linecap:round;stroke-linejoin:round;stroke-miterlimit:10;" d="M73.026,225.889
					h-7.393c-0.976,0-1.793-0.741-1.888-1.713l-0.91-9.295h12.99l-0.91,9.295C74.819,225.148,74.002,225.889,73.026,225.889z"/>
				<path style="fill:none;stroke:#263238;stroke-linecap:round;stroke-linejoin:round;stroke-miterlimit:10;" d="M73.166,226.058
					c0,1.295-1.718,2.344-3.836,2.344c-2.119,0-3.836-1.05-3.836-2.344"/>
				<polyline style="fill:none;stroke:#263238;stroke-linecap:round;stroke-linejoin:round;stroke-miterlimit:10;" points="
					62.834,204.789 65.918,204.789 67.841,200.74 70.079,208.519 72.423,201.586 73.595,204.629 75.824,204.629 				"/>
			</g>
		</g>
		<g>
			<g>
				<path style="fill:none;stroke:#263238;stroke-linecap:round;stroke-linejoin:round;stroke-miterlimit:10;" d="M240.361,29.339
					c10.087-4.484,21.9,0.058,26.384,10.145"/>
				<path style="fill:none;stroke:#263238;stroke-linecap:round;stroke-linejoin:round;stroke-miterlimit:10;" d="M233.737,61.108
					c-1.421-1.552-2.619-3.356-3.521-5.385c-2.305-5.185-2.225-10.827-0.233-15.694c1.445-3.53,3.896-6.654,7.173-8.901"/>
				<path style="fill:none;stroke:#263238;stroke-linecap:round;stroke-linejoin:round;stroke-miterlimit:10;" d="M238.641,65.004
					c-0.974-0.549-1.904-1.182-2.778-1.892"/>
				<path style="fill:none;stroke:#263238;stroke-linecap:round;stroke-linejoin:round;stroke-miterlimit:10;" d="M256.6,65.868
					c-5.044,2.242-10.519,2.228-15.293,0.392"/>
				<path style="fill:none;stroke:#263238;stroke-linecap:round;stroke-linejoin:round;stroke-miterlimit:10;" d="M268.01,43.33
					c0.871,3.959,0.491,8.004-0.946,11.633c-0.455,1.149-1.015,2.256-1.676,3.305"/>
			</g>
			<g>
				<polygon style="fill:none;stroke:#263238;stroke-linecap:round;stroke-linejoin:round;stroke-miterlimit:10;" points="
					250.161,52.601 246.8,52.601 244.8,36.11 252.161,36.11 				"/>
				<polygon style="fill:none;stroke:#263238;stroke-linecap:round;stroke-linejoin:round;stroke-miterlimit:10;" points="
					250.161,55.601 246.8,55.601 245.8,59.098 251.161,59.098 				"/>
			</g>
		</g>
		<g>
			<g>
				<path style="fill:none;stroke:#263238;stroke-linecap:round;stroke-linejoin:round;stroke-miterlimit:10;" d="M439.911,248.197
					c-10.733,2.582-21.527-4.025-24.109-14.758"/>
				<path style="fill:none;stroke:#263238;stroke-linecap:round;stroke-linejoin:round;stroke-miterlimit:10;" d="M452.181,218.154
					c1.116,1.783,1.968,3.775,2.487,5.933c1.327,5.517,0.227,11.051-2.615,15.477c-2.061,3.21-5.038,5.837-8.667,7.453"/>
				<path style="fill:none;stroke:#263238;stroke-linecap:round;stroke-linejoin:round;stroke-miterlimit:10;" d="M448.064,213.434
					c0.858,0.717,1.658,1.507,2.389,2.364"/>
				<path style="fill:none;stroke:#263238;stroke-linecap:round;stroke-linejoin:round;stroke-miterlimit:10;" d="M430.559,209.33
					c5.366-1.291,10.748-0.285,15.111,2.386"/>
				<path style="fill:none;stroke:#263238;stroke-linecap:round;stroke-linejoin:round;stroke-miterlimit:10;" d="M415.254,229.428
					c-0.139-4.051,0.968-7.961,3.038-11.269c0.655-1.047,1.407-2.034,2.247-2.946"/>
			</g>
			<path style="fill:none;stroke:#263238;stroke-linecap:round;stroke-linejoin:round;stroke-miterlimit:10;" d="M441.524,220.763
				c-3.345-1.026-5.372,1.033-6.287,2.355c-0.915-1.323-2.949-3.382-6.294-2.355c-3.629,1.119-4.89,5.743-1.836,9.966
				c2.201,3.035,5.743,5.113,7.555,6.034c0.216,0.111,0.414,0.204,0.575,0.278c0.161-0.074,0.358-0.167,0.575-0.278
				c1.811-0.921,5.354-2.999,7.549-6.034C446.421,226.506,445.153,221.882,441.524,220.763z"/>
		</g>
		<g>
			<g>
				<path style="fill:none;stroke:#263238;stroke-linecap:round;stroke-linejoin:round;stroke-miterlimit:10;" d="M359.409,270.326
					c13.869-7.164,30.921-1.729,38.085,12.14"/>
				<path style="fill:none;stroke:#263238;stroke-linecap:round;stroke-linejoin:round;stroke-miterlimit:10;" d="M352.685,315.721
					c-2.134-2.073-3.975-4.521-5.416-7.31c-3.683-7.13-4.036-15.1-1.626-22.136c1.748-5.103,4.95-9.715,9.39-13.158"/>
				<path style="fill:none;stroke:#263238;stroke-linecap:round;stroke-linejoin:round;stroke-miterlimit:10;" d="M359.93,320.816
					c-1.42-0.695-2.785-1.511-4.078-2.441"/>
				<path style="fill:none;stroke:#263238;stroke-linecap:round;stroke-linejoin:round;stroke-miterlimit:10;" d="M385.354,320.552
					c-6.935,3.582-14.665,4.014-21.557,1.817"/>
				<path style="fill:none;stroke:#263238;stroke-linecap:round;stroke-linejoin:round;stroke-miterlimit:10;" d="M399.598,287.791
					c1.556,5.517,1.355,11.259-0.374,16.501c-0.547,1.659-1.247,3.268-2.093,4.804"/>
			</g>
			<g>
				<g>
					
						<circle style="fill:none;stroke:#263238;stroke-linecap:round;stroke-linejoin:round;stroke-miterlimit:10;" cx="373.042" cy="294.728" r="13.314"/>
					<path style="fill:none;stroke:#263238;stroke-linecap:round;stroke-linejoin:round;stroke-miterlimit:10;" d="M375.786,297.594
						c-1.583,1.516-4.094,1.461-5.61-0.122s-1.461-4.094,0.122-5.61s4.094-1.461,5.61,0.122S377.369,296.079,375.786,297.594z"/>
					<path style="fill:none;stroke:#263238;stroke-linecap:round;stroke-linejoin:round;stroke-miterlimit:10;" d="M378.841,300.785
						c-3.345,3.203-8.653,3.088-11.855-0.257c-3.203-3.345-3.088-8.653,0.257-11.855c3.345-3.203,8.653-3.088,11.855,0.257
						C382.301,292.274,382.186,297.582,378.841,300.785z"/>
				</g>
				
					<line style="fill:none;stroke:#263238;stroke-linecap:round;stroke-linejoin:round;stroke-miterlimit:10;" x1="373.042" y1="294.728" x2="387.528" y2="280.858"/>
				<polyline style="fill:none;stroke:#263238;stroke-linecap:round;stroke-linejoin:round;stroke-miterlimit:10;" points="
					387.645,277.357 387.57,280.818 391.03,280.893 				"/>
				<polyline style="fill:none;stroke:#263238;stroke-linecap:round;stroke-linejoin:round;stroke-miterlimit:10;" points="
					385.478,279.432 385.403,282.893 388.864,282.968 				"/>
				<polyline style="fill:none;stroke:#263238;stroke-linecap:round;stroke-linejoin:round;stroke-miterlimit:10;" points="
					383.311,281.507 383.236,284.968 386.697,285.043 				"/>
			</g>
		</g>
		<g>
			<g>
				<path style="fill:none;stroke:#263238;stroke-linecap:round;stroke-linejoin:round;stroke-miterlimit:10;" d="M116.321,329.466
					c-10.733,2.582-21.527-4.025-24.109-14.758"/>
				<path style="fill:none;stroke:#263238;stroke-linecap:round;stroke-linejoin:round;stroke-miterlimit:10;" d="M128.592,299.423
					c1.116,1.784,1.968,3.775,2.487,5.934c1.327,5.517,0.227,11.051-2.615,15.477c-2.061,3.21-5.037,5.837-8.667,7.453"/>
				<path style="fill:none;stroke:#263238;stroke-linecap:round;stroke-linejoin:round;stroke-miterlimit:10;" d="M124.475,294.703
					c0.858,0.717,1.658,1.507,2.389,2.364"/>
				<path style="fill:none;stroke:#263238;stroke-linecap:round;stroke-linejoin:round;stroke-miterlimit:10;" d="M106.97,290.599
					c5.366-1.291,10.748-0.285,15.111,2.386"/>
				<path style="fill:none;stroke:#263238;stroke-linecap:round;stroke-linejoin:round;stroke-miterlimit:10;" d="M91.665,310.696
					c-0.139-4.051,0.968-7.96,3.038-11.269c0.655-1.047,1.407-2.034,2.247-2.946"/>
			</g>
			<g>
				<polyline style="fill:none;stroke:#263238;stroke-linecap:round;stroke-linejoin:round;stroke-miterlimit:10;" points="
					103.022,302.714 103.022,317.35 120.269,317.35 				"/>
				
					<rect x="106.583" y="306.822" style="fill:none;stroke:#263238;stroke-linecap:round;stroke-linejoin:round;stroke-miterlimit:10;" width="2.571" height="10.528"/>
				
					<rect x="111.583" y="309.822" style="fill:none;stroke:#263238;stroke-linecap:round;stroke-linejoin:round;stroke-miterlimit:10;" width="2.571" height="7.528"/>
				
					<rect x="116.583" y="303.822" style="fill:none;stroke:#263238;stroke-linecap:round;stroke-linejoin:round;stroke-miterlimit:10;" width="2.571" height="13.528"/>
			</g>
		</g>
		<g>
			<polyline style="fill:none;stroke:#263238;stroke-linecap:round;stroke-linejoin:round;stroke-miterlimit:10;" points="
				131.638,294.728 250,182.917 104.267,201.853 			"/>
			<polyline style="fill:none;stroke:#263238;stroke-linecap:round;stroke-linejoin:round;stroke-miterlimit:10;" points="
				150.485,126.408 250,182.917 248.135,70.562 			"/>
			<polyline style="fill:none;stroke:#263238;stroke-linecap:round;stroke-linejoin:round;stroke-miterlimit:10;" points="
				338.736,142.879 250,182.917 410.605,222.32 			"/>
			
				<line style="fill:none;stroke:#263238;stroke-linecap:round;stroke-linejoin:round;stroke-miterlimit:10;" x1="250" y1="182.917" x2="349.572" y2="273.117"/>
		</g>
	</g>
	<g>
		<g>
			<defs>
				<path id="XMLID_182_" d="M315.164,179.774c0-35.989-29.175-65.164-65.164-65.164s-65.164,29.175-65.164,65.164
					c0,34.492,26.803,62.706,60.714,64.996L250,261.765l4.451-16.994C288.362,242.481,315.164,214.266,315.164,179.774z"/>
			</defs>
			<use xlink:href="#XMLID_182_"  style="overflow:visible;fill:#FFFFFF;"/>
			<clipPath id="XMLID_00000048466099267206332180000004985865771998516141_">
				<use xlink:href="#XMLID_182_"  style="overflow:visible;"/>
			</clipPath>
			<path style="opacity:0;clip-path:url(#XMLID_00000048466099267206332180000004985865771998516141_);fill:#92E3A9;" d="
				M315.164,179.774c0-35.989-29.175-65.164-65.164-65.164s-65.164,29.175-65.164,65.164c0,34.492,26.803,62.706,60.714,64.996
				L250,261.765l4.451-16.994C288.362,242.481,315.164,214.266,315.164,179.774z"/>
			
				<use xlink:href="#XMLID_182_"  style="overflow:visible;fill:none;stroke:#263238;stroke-linecap:round;stroke-linejoin:round;stroke-miterlimit:10;"/>
		</g>
		<g>
			<path style="fill:#92E3A9;" d="M288.986,186.612c-0.337,1.584-0.597,3.435-0.857,5.233c-0.39,2.747-0.796,5.592-1.469,7.505
				c-0.298,0.849-1.033,1.775-2.02,2.67c-0.046,1.125-0.543,7.658-5.126,9.754c-0.161,1.132-0.681,2.333-2.012,3.091
				c-0.168,0.092-16.081,8.722-21.743,8.722c-0.413,0-0.765-0.046-1.056-0.138c-2.724-0.895-4.001-2.586-3.909-5.332
				c0.031-1.025,0.245-2.196,0.65-3.527c-1.071-1.492-0.834-3.389-0.612-5.072c0.145-1.079,0.283-2.096,0.069-2.892
				c-0.543-2.05,0.229-5.394,0.436-6.212c-0.681-1.063-0.474-4.085-0.107-8.178c0.13-1.408,0.253-2.731,0.253-3.542
				c0-0.887,0.451-1.691,1.086-2.372c-0.436-1.989-0.107-6.25-0.053-6.862c-1.125-4.269-0.168-10.481-0.015-11.407
				c-2.18-5.546-0.574-10.733-0.222-11.736c-1.874-3.634-0.91-10.642-0.803-11.399c-0.076-0.574-0.566-4.812,1.446-6.755
				c0.865-0.842,2.066-1.132,3.557-0.857c3.466,0.635,5.654,1.079,7.23,1.507c1.086,0.298,1.89,0.589,2.601,0.918
				c1.025,0.474,2.372,1.997,3.037,3.81c0.918-0.26,3.382-0.704,5.692,1.071c2.249,1.737,2.341,3.328,2.257,3.993
				c4.904,3.014,6.755,15.316,6.962,16.839c0.497,0.49,2.364,2.639,1.515,6.357c1.538,1.668,2.035,3.764,1.385,5.921
				c-0.145,0.482-0.352,0.964-0.604,1.423c0,0.008,0.008,0.008,0.008,0.008C286.699,179.283,289.874,182.427,288.986,186.612z"/>
			<path style="opacity:0.2;" d="M288.986,186.612c-0.337,1.584-0.597,3.435-0.857,5.233c-0.39,2.747-0.796,5.592-1.469,7.505
				c-0.298,0.849-1.033,1.775-2.02,2.67c-0.046,1.125-0.543,7.658-5.126,9.754c-0.161,1.132-0.681,2.333-2.012,3.091
				c-0.168,0.092-16.081,8.722-21.743,8.722c-0.413,0-0.765-0.046-1.056-0.138c-2.724-0.895-4.001-2.586-3.909-5.332
				c0.161,0.077,0.321,0.253,0.474,0.566c1.438,2.876,4.169,3.175,6.472,2.724c2.303-0.459,2.869-3.183,2.869-3.183l-3.963-2.479
				c0,0,4.544-1.454,7.352-2.509c2.808-1.063,1.178-3.481,1.178-3.481c-2.815,0.451-4.238-0.78-4.238-0.78s0.398-1.798,1.752-2.295
				c1.346-0.497,6.067-3.282,4.246-4.728c-1.813-1.438-4.246-0.099-4.246-0.099c-3.649,0.574-4.95-1.523-4.95-1.523
				s10.252-2.984,10.099-6.51c-0.153-3.527-1.048-5.126-1.048-5.126s4.108-1.186,4.873-4.062c0.765-2.877-2.486-6.289-2.486-6.289
				c1.66,0.421,2.754-2.035,2.486-2.938c-0.268-0.91,3.297-3.787,3.137-5.753c-0.153-1.966-3.137-2.211-3.137-2.211
				c1.851-3.879-1.285-12.088-1.285-12.088c0.864-4.307-2.984-8.018-2.984-8.018c0.253-3.251-1.813-6.388-3.688-8.523
				c1.086,0.298,1.89,0.589,2.601,0.918c1.025,0.474,2.372,1.997,3.037,3.81c0.918-0.26,3.382-0.704,5.692,1.071
				c2.249,1.737,2.341,3.328,2.257,3.993c4.904,3.014,6.755,15.316,6.962,16.839c0.497,0.49,2.364,2.639,1.515,6.357
				c1.538,1.668,2.035,3.764,1.385,5.921c-0.145,0.482-0.352,0.964-0.604,1.423c0,0.008,0.008,0.008,0.008,0.008
				C286.699,179.283,289.874,182.427,288.986,186.612z"/>
			<path style="fill:#92E3A9;" d="M248.554,214.589c1.492,4.896,0.482,7.628-3.259,8.859c-0.291,0.092-0.643,0.138-1.056,0.138
				c-2.15,0-5.784-1.247-9.471-2.792c-6.013-2.532-12.164-5.876-12.271-5.929c-1.331-0.757-1.851-1.958-2.012-3.091
				c-4.583-2.096-5.08-8.63-5.126-9.754c-0.987-0.895-1.721-1.821-2.02-2.67c-0.673-1.913-1.079-4.759-1.469-7.513
				c-0.26-1.79-0.52-3.642-0.857-5.225c-0.887-4.185,2.288-7.329,2.425-7.459c0,0,0.008,0,0.008-0.008
				c-0.252-0.459-0.459-0.941-0.604-1.423c-0.65-2.157-0.153-4.254,1.385-5.921c-0.849-3.718,1.018-5.868,1.515-6.357
				c0.207-1.522,2.058-13.824,6.962-16.839c-0.084-0.666,0.008-2.257,2.257-3.993c2.31-1.775,4.774-1.331,5.692-1.071
				c0.666-1.813,2.012-3.336,3.037-3.81c1.752-0.811,3.955-1.354,9.831-2.425c1.385-0.253,2.517-0.023,3.366,0.688
				c0.069,0.054,0.13,0.107,0.191,0.168c2.012,1.943,1.523,6.181,1.446,6.755c0.107,0.757,1.071,7.765-0.803,11.399
				c0.352,1.002,1.958,6.189-0.222,11.736c0.153,0.926,1.109,7.138-0.015,11.407c0.054,0.612,0.383,4.873-0.054,6.862
				c0.635,0.681,1.086,1.484,1.086,2.372c0,0.811,0.122,2.134,0.245,3.542c0.375,4.093,0.581,7.115-0.099,8.178
				c0.207,0.819,0.979,4.162,0.436,6.212c-0.214,0.796-0.077,1.813,0.069,2.892C249.388,211.2,249.625,213.097,248.554,214.589z"/>
			<path style="opacity:0.2;" d="M248.554,214.589c1.492,4.896,0.482,7.628-3.259,8.859c-0.291,0.092-0.643,0.138-1.056,0.138
				c-2.15,0-5.784-1.247-9.471-2.792c1.905,0.291,3.565,0.26,4.621-0.344c4.231-2.425,1.301-4.705,1.301-4.705
				c5.531,0.543,4.361-5.99,4.804-9.066c0.444-3.068-3.236-5.845-3.236-5.845c2.861,0.436,2.188-6.013,3.427-8.393
				c1.247-2.379-0.903-7.65-0.903-7.65c-0.467-4.177-2.157-5.508,0-8.347c2.157-2.846,0-9.792,0-9.792s1.477-3.106,0.903-5.585
				c-0.566-2.486,0-7.337,0-7.337c-2.027-2.578,0-11.07,0-11.07c0.099-2.173,0.62-3.665,1.201-4.667
				c0.069,0.054,0.13,0.107,0.191,0.168c2.012,1.943,1.523,6.181,1.446,6.755c0.107,0.757,1.071,7.765-0.803,11.399
				c0.352,1.002,1.958,6.189-0.222,11.736c0.153,0.926,1.109,7.138-0.015,11.407c0.054,0.612,0.383,4.873-0.054,6.862
				c0.635,0.681,1.086,1.484,1.086,2.372c0,0.811,0.122,2.134,0.245,3.542c0.375,4.093,0.581,7.115-0.099,8.178
				c0.207,0.819,0.979,4.162,0.436,6.212c-0.214,0.796-0.077,1.813,0.069,2.892C249.388,211.2,249.625,213.097,248.554,214.589z"/>
			<g>
				<g>
					<path style="fill:none;stroke:#263238;stroke-linecap:round;stroke-linejoin:round;stroke-miterlimit:10;" d="M260.769,147.337
						c0,0-1.009,5.676,2.018,8.018c0,0-0.605,6.982,1.211,10.211c0,0-3.026,6.457,0,10.492c0,0-3.632,9.685,0,12.106
						c3.632,2.421,13.317-4.237,17.15-5.044c3.834-0.807,8.474-6.86,4.214-11.208"/>
					<path style="fill:none;stroke:#263238;stroke-linecap:round;stroke-linejoin:round;stroke-miterlimit:10;" d="M273.839,166.977
						c0,0,0.045-2.018,0-4.842c-0.044-2.825-2.175-6.78-2.175-6.78c1.009-2.543-2.825-8.018-2.825-8.018
						c1.614-2.49-0.969-6.465-2.692-7.264c-1.723-0.798-3.965-1.343-9.739-2.395c-5.775-1.052-4.544,7.238-4.544,7.238
						s-1.184,7.736,0.833,11.368c0,0-2.219,5.704,0.202,11.73c0,0-1.211,6.914,0,11.413c0,0-0.436,5.063,0.084,7"/>
					<path style="fill:none;stroke:#263238;stroke-linecap:round;stroke-linejoin:round;stroke-miterlimit:10;" d="M269.832,168.013
						c0,0,4.253-1.99,9.096,0"/>
					<path style="fill:none;stroke:#263238;stroke-linecap:round;stroke-linejoin:round;stroke-miterlimit:10;" d="M256.734,184.048
						c0,0-4.869,1.941-4.869,4.642c0,2.701-1.255,10.493-0.11,11.641c1.145,1.148,11.201,0.543,18.077-4.098
						c0,0,8.692,0.807,10.508-1.412c1.816-2.219,4.893-2.795,5.271-4.222"/>
					<path style="fill:none;stroke:#263238;stroke-linecap:round;stroke-linejoin:round;stroke-miterlimit:10;" d="M286.296,179.427
						c0,0,3.173,3.08,2.317,7.106s-1.215,9.574-2.317,12.692c-1.102,3.118-8.264,7.351-12.457,6.114c0,0-12.061,4.725-15.088,3.459"
						/>
					<path style="fill:none;stroke:#263238;stroke-linecap:round;stroke-linejoin:round;stroke-miterlimit:10;" d="M251.755,200.331
						c0,0-1.074,3.973-0.482,6.193c0.592,2.219-1.25,5.72,0.592,8.005c1.842,2.285,16.773,1.074,18.993-1.347"/>
					<path style="fill:none;stroke:#263238;stroke-linecap:round;stroke-linejoin:round;stroke-miterlimit:10;" d="M278.928,209.014
						c0,0,1.25,3.89-1.614,5.515c-2.865,1.626-18.748,9.782-22.489,8.555c-3.741-1.226-4.399-3.981-2.96-8.555"/>
					<path style="fill:none;stroke:#263238;stroke-linecap:round;stroke-linejoin:round;stroke-miterlimit:10;" d="M284.266,201.853
						c0,0-0.154,7.575-5.067,9.654"/>
					<path style="fill:none;stroke:#263238;stroke-linecap:round;stroke-linejoin:round;stroke-miterlimit:10;" d="M269.11,144.016
						c0,0,2.984-1.187,5.695,0.899c2.711,2.087,2.061,3.879,2.061,3.879c5.201,2.801,7.033,16.836,7.033,16.836
						s2.495,2.154,1.463,6.28c-1.032,4.126-6.837,3.138-11.523,5.699c-4.685,2.561-9.842-1.553-9.842-1.553"/>
					<path style="fill:none;stroke:#263238;stroke-linecap:round;stroke-linejoin:round;stroke-miterlimit:10;" d="M263.997,188.163
						c0,0-1.816,3.512-6.255,4.278"/>
					<path style="fill:none;stroke:#263238;stroke-linecap:round;stroke-linejoin:round;stroke-miterlimit:10;" d="M262.689,173.232
						c0,0-3.261-0.649-6.763,1.211"/>
					<path style="fill:none;stroke:#263238;stroke-linecap:round;stroke-linejoin:round;stroke-miterlimit:10;" d="M252.9,168.013
						c0,0,4.237-3.256,5.851-2.65"/>
					<path style="fill:none;stroke:#263238;stroke-linecap:round;stroke-linejoin:round;stroke-miterlimit:10;" d="M262.689,158.099
						c0,0-5.35-0.605-6.763,1.614"/>
					<path style="fill:none;stroke:#263238;stroke-linecap:round;stroke-linejoin:round;stroke-miterlimit:10;" d="M252.698,156.283
						c0,0,0.605-2.825,3.228-3.228"/>
					<path style="fill:none;stroke:#263238;stroke-linecap:round;stroke-linejoin:round;stroke-miterlimit:10;" d="M251.865,144.915
						c0,0,1.64-2.894,4.062-2.421"/>
					<path style="fill:none;stroke:#263238;stroke-linecap:round;stroke-linejoin:round;stroke-miterlimit:10;" d="M273.839,205.339
						c0,0,0.448-3.135-1.368-4.506"/>
					<path style="fill:none;stroke:#263238;stroke-linecap:round;stroke-linejoin:round;stroke-miterlimit:10;" d="M269.832,196.234
						c0,0,1.428-4.338,1.025-5.397"/>
					<path style="fill:none;stroke:#263238;stroke-linecap:round;stroke-linejoin:round;stroke-miterlimit:10;" d="M260.608,200.395
						c0,0,1.984,0.868,2.082,2.692"/>
					<path style="fill:none;stroke:#263238;stroke-linecap:round;stroke-linejoin:round;stroke-miterlimit:10;" d="M276.703,176.442
						c0,0,1.619,2.641,0.812,4.457"/>
					<path style="fill:none;stroke:#263238;stroke-linecap:round;stroke-linejoin:round;stroke-miterlimit:10;" d="M283.899,165.63
						c0,0-3.155-2.487-4.971-2.89"/>
					<path style="fill:none;stroke:#263238;stroke-linecap:round;stroke-linejoin:round;stroke-miterlimit:10;" d="M271.664,155.354
						c0,0,2.613-1.29,5.039-0.685"/>
				</g>
				<g>
					<path style="fill:none;stroke:#263238;stroke-linecap:round;stroke-linejoin:round;stroke-miterlimit:10;" d="M239.231,147.337
						c0,0,1.009,5.676-2.018,8.018c0,0,0.605,6.982-1.211,10.211c0,0,3.027,6.457,0,10.492c0,0,3.632,9.685,0,12.106
						s-13.317-4.237-17.15-5.044c-3.834-0.807-8.474-6.86-4.214-11.208"/>
					<path style="fill:none;stroke:#263238;stroke-linecap:round;stroke-linejoin:round;stroke-miterlimit:10;" d="M226.16,166.977
						c0,0-0.045-2.018,0-4.842c0.045-2.825,2.175-6.78,2.175-6.78c-1.009-2.543,2.825-8.018,2.825-8.018
						c-1.614-2.49,0.969-6.465,2.692-7.264c1.722-0.798,3.965-1.343,9.739-2.395c5.775-1.052,4.544,7.238,4.544,7.238
						s1.184,7.736-0.833,11.368c0,0,2.219,5.704-0.202,11.73c0,0,1.211,6.914,0,11.413c0,0,0.436,5.063-0.084,7"/>
					<path style="fill:none;stroke:#263238;stroke-linecap:round;stroke-linejoin:round;stroke-miterlimit:10;" d="M230.167,168.013
						c0,0-4.253-1.99-9.096,0"/>
					<path style="fill:none;stroke:#263238;stroke-linecap:round;stroke-linejoin:round;stroke-miterlimit:10;" d="M243.266,184.048
						c0,0,4.869,1.941,4.869,4.642c0,2.701,1.255,10.493,0.11,11.641c-1.145,1.148-11.201,0.543-18.077-4.098
						c0,0-8.692,0.807-10.508-1.412c-1.816-2.219-4.893-2.795-5.271-4.222"/>
					<path style="fill:none;stroke:#263238;stroke-linecap:round;stroke-linejoin:round;stroke-miterlimit:10;" d="M213.703,179.427
						c0,0-3.173,3.08-2.317,7.106c0.856,4.026,1.215,9.574,2.317,12.692c1.102,3.118,8.264,7.351,12.457,6.114
						c0,0,12.062,4.725,15.088,3.459"/>
					<path style="fill:none;stroke:#263238;stroke-linecap:round;stroke-linejoin:round;stroke-miterlimit:10;" d="M248.245,200.331
						c0,0,1.074,3.973,0.482,6.193c-0.592,2.219,1.25,5.72-0.592,8.005c-1.842,2.285-16.773,1.074-18.993-1.347"/>
					<path style="fill:none;stroke:#263238;stroke-linecap:round;stroke-linejoin:round;stroke-miterlimit:10;" d="M221.072,209.014
						c0,0-1.251,3.89,1.614,5.515c2.865,1.626,18.748,9.782,22.489,8.555c3.741-1.226,4.399-3.981,2.96-8.555"/>
					<path style="fill:none;stroke:#263238;stroke-linecap:round;stroke-linejoin:round;stroke-miterlimit:10;" d="M215.733,201.853
						c0,0,0.154,7.575,5.067,9.654"/>
					<path style="fill:none;stroke:#263238;stroke-linecap:round;stroke-linejoin:round;stroke-miterlimit:10;" d="M230.89,144.016
						c0,0-2.984-1.187-5.695,0.899c-2.711,2.087-2.061,3.879-2.061,3.879c-5.201,2.801-7.033,16.836-7.033,16.836
						s-2.494,2.154-1.463,6.28c1.032,4.126,6.837,3.138,11.523,5.699c4.685,2.561,9.842-1.553,9.842-1.553"/>
					<path style="fill:none;stroke:#263238;stroke-linecap:round;stroke-linejoin:round;stroke-miterlimit:10;" d="M236.003,188.163
						c0,0,1.816,3.512,6.255,4.278"/>
					<path style="fill:none;stroke:#263238;stroke-linecap:round;stroke-linejoin:round;stroke-miterlimit:10;" d="M237.311,173.232
						c0,0,3.261-0.649,6.763,1.211"/>
					<path style="fill:none;stroke:#263238;stroke-linecap:round;stroke-linejoin:round;stroke-miterlimit:10;" d="M247.1,168.013
						c0,0-4.237-3.256-5.851-2.65"/>
					<path style="fill:none;stroke:#263238;stroke-linecap:round;stroke-linejoin:round;stroke-miterlimit:10;" d="M237.311,158.099
						c0,0,5.35-0.605,6.763,1.614"/>
					<path style="fill:none;stroke:#263238;stroke-linecap:round;stroke-linejoin:round;stroke-miterlimit:10;" d="M247.302,156.283
						c0,0-0.605-2.825-3.228-3.228"/>
					<path style="fill:none;stroke:#263238;stroke-linecap:round;stroke-linejoin:round;stroke-miterlimit:10;" d="M248.135,144.915
						c0,0-1.64-2.894-4.062-2.421"/>
					<path style="fill:none;stroke:#263238;stroke-linecap:round;stroke-linejoin:round;stroke-miterlimit:10;" d="M226.16,205.339
						c0,0-0.448-3.135,1.368-4.506"/>
					<path style="fill:none;stroke:#263238;stroke-linecap:round;stroke-linejoin:round;stroke-miterlimit:10;" d="M230.167,196.234
						c0,0-1.428-4.338-1.025-5.397"/>
					<path style="fill:none;stroke:#263238;stroke-linecap:round;stroke-linejoin:round;stroke-miterlimit:10;" d="M239.392,200.395
						c0,0-1.984,0.868-2.082,2.692"/>
					<path style="fill:none;stroke:#263238;stroke-linecap:round;stroke-linejoin:round;stroke-miterlimit:10;" d="M223.296,176.442
						c0,0-1.619,2.641-0.812,4.457"/>
					<path style="fill:none;stroke:#263238;stroke-linecap:round;stroke-linejoin:round;stroke-miterlimit:10;" d="M216.101,165.63
						c0,0,3.155-2.487,4.971-2.89"/>
					<path style="fill:none;stroke:#263238;stroke-linecap:round;stroke-linejoin:round;stroke-miterlimit:10;" d="M228.335,155.354
						c0,0-2.612-1.29-5.039-0.685"/>
				</g>
			</g>
		</g>
	</g>
</g>
</svg>
