<?xml version="1.0" encoding="utf-8"?>
<!-- Generator: Adobe Illustrator 27.5.0, SVG Export Plug-In . SVG Version: 6.00 Build 0)  -->
<svg version="1.1" id="Layer_1" xmlns="http://www.w3.org/2000/svg" xmlns:xlink="http://www.w3.org/1999/xlink" x="0px" y="0px"
	 viewBox="0 0 407.077 295.114" style="enable-background:new 0 0 407.077 295.114;" xml:space="preserve">
<g>
	<g>
		<g>
			<path style="fill:#5B5B5B;" d="M330.014,144.579l0.011-0.005l-0.368-0.876l-0.367-0.876l-0.011,0.005
				c-13.655-31.884-39.71-57.716-71.715-71.099l0.005-0.011l-0.878-0.36l-0.88-0.36l-0.004,0.01
				c-15.899-6.382-32.701-9.625-49.961-9.625c-17.666,0-34.826,3.387-51.024,10.053l-0.005-0.012l-0.876,0.368l-0.876,0.367
				l0.005,0.011c-31.883,13.655-57.715,39.71-71.099,71.715l-0.011-0.005l-0.36,0.879l-0.36,0.88l0.01,0.004
				c-6.382,15.898-9.626,32.7-9.626,49.961c0,17.986,3.502,35.449,10.409,51.905l0.367,0.876l31.411-13.168l-0.368-0.876
				c-5.155-12.282-7.768-25.315-7.768-38.737c0-13.119,2.505-25.886,7.445-37.945c9.996-24.403,29.674-44.251,53.988-54.456
				c12.281-5.155,25.313-7.768,38.737-7.768c13.119,0,25.886,2.505,37.945,7.445c24.403,9.997,44.252,29.674,54.456,53.988
				c5.155,12.281,7.768,25.313,7.768,38.737c0,13.119-2.505,25.886-7.445,37.944l-0.36,0.88l31.522,12.899l0.36-0.879
				c6.619-16.159,9.976-33.266,9.976-50.844C340.067,177.937,336.68,160.777,330.014,144.579z"/>
			<path style="fill:#5B5B5B;" d="M205.845,61.382c17.26,0,34.062,3.244,49.961,9.625l0.004-0.01l0.88,0.36l0.878,0.36l-0.005,0.011
				c32.005,13.383,58.06,39.215,71.715,71.099l0.011-0.005l0.367,0.876l0.368,0.876l-0.011,0.005
				c6.666,16.199,10.053,33.359,10.053,51.024c0,17.579-3.357,34.685-9.976,50.844l-0.36,0.879l-31.522-12.899l0.36-0.88
				c4.94-12.059,7.445-24.825,7.445-37.944c0-13.423-2.613-26.456-7.768-38.737c-10.204-24.313-30.053-43.99-54.456-53.988
				c-12.06-4.94-24.826-7.445-37.945-7.445c-13.423,0-26.456,2.613-38.737,7.768c-24.313,10.205-43.991,30.053-53.988,54.456
				c-4.94,12.06-7.445,24.826-7.445,37.945c0,13.422,2.613,26.454,7.768,38.737l0.368,0.876l-31.411,13.168l-0.367-0.876
				c-6.907-16.456-10.409-33.919-10.409-51.905c0-17.26,3.244-34.062,9.626-49.961l-0.01-0.004l0.36-0.879l0.36-0.879l0.011,0.005
				c13.384-32.005,39.215-58.06,71.099-71.715l-0.005-0.011l0.876-0.367l0.876-0.368l0.005,0.012
				C171.02,64.769,188.179,61.382,205.845,61.382 M205.845,59.957c-17.77,0-35.06,3.394-51.392,10.088
				c-0.064,0.017-0.127,0.038-0.189,0.064l-0.876,0.368l-0.875,0.367c-0.062,0.026-0.121,0.056-0.178,0.09
				c-32.027,13.77-58.11,40.081-71.608,72.23c-0.032,0.056-0.061,0.114-0.086,0.175l-0.36,0.879l-0.36,0.88
				c-0.024,0.059-0.044,0.119-0.06,0.18c-6.41,16.031-9.661,32.963-9.661,50.325c0,18.176,3.54,35.825,10.52,52.456l0.367,0.875
				c0.229,0.546,0.758,0.874,1.315,0.874c0.183,0,0.37-0.036,0.55-0.111l31.411-13.168c0.349-0.146,0.625-0.425,0.768-0.775
				c0.143-0.35,0.141-0.743-0.006-1.091l-0.369-0.876c-5.08-12.105-7.656-24.953-7.656-38.184c0-12.933,2.469-25.518,7.339-37.405
				c9.854-24.055,29.252-43.622,53.221-53.682c12.105-5.081,24.952-7.657,38.185-7.657c12.933,0,25.518,2.469,37.405,7.339
				c24.057,9.855,43.623,29.254,53.682,53.22c5.081,12.105,7.657,24.952,7.657,38.185c0,12.933-2.469,25.518-7.339,37.404
				l-0.36,0.88c-0.143,0.35-0.141,0.742,0.005,1.091c0.146,0.349,0.425,0.625,0.774,0.768l31.522,12.899
				c0.177,0.072,0.359,0.107,0.539,0.107c0.561,0,1.093-0.334,1.319-0.885l0.36-0.879c6.69-16.332,10.082-33.62,10.082-51.385
				c0-17.771-3.395-35.062-10.089-51.393c-0.017-0.063-0.038-0.126-0.064-0.188l-0.368-0.876l-0.367-0.875
				c-0.026-0.061-0.055-0.12-0.089-0.176c-13.771-32.03-40.082-58.115-72.234-71.611c-0.055-0.032-0.113-0.061-0.173-0.085
				l-0.878-0.36l-0.88-0.36c-0.059-0.024-0.119-0.044-0.179-0.06C240.139,63.208,223.208,59.957,205.845,59.957L205.845,59.957z"/>
		</g>
		<g>
			<g style="opacity:0.3;">
				<path style="fill:#565656;" d="M80.928,107.706l1.287-1.424c0.62-0.686,1.244-1.028,1.872-1.027
					c0.632,0.004,1.327,0.349,2.086,1.035c1.067,0.964,1.474,1.901,1.219,2.81c-0.143,0.444-0.484,0.964-1.022,1.559l3.56,3.217
					l-0.977,1.081L80.928,107.706z M85.445,109.823c0.404-0.447,0.592-0.837,0.565-1.169c-0.027-0.339-0.275-0.72-0.742-1.143
					c-0.478-0.432-0.903-0.665-1.275-0.699c-0.372-0.034-0.719,0.127-1.042,0.484l-0.136,0.151L85.445,109.823z"/>
				<path style="fill:#565656;" d="M92.581,103.272c1.417,1.28,2.281,2.347,2.592,3.201c0.311,0.854,0.132,1.651-0.538,2.393
					c-0.704,0.78-1.521,1.039-2.45,0.779c-0.912-0.251-2.168-1.1-3.769-2.546c-1.428-1.29-2.297-2.358-2.607-3.205
					c-0.311-0.854-0.127-1.657,0.552-2.409c0.607-0.672,1.289-0.963,2.044-0.872c0.502,0.064,1.082,0.304,1.737,0.72
					C90.756,101.712,91.569,102.358,92.581,103.272z M91.672,104.508c-1.389-1.255-2.368-2.026-2.934-2.311
					c-0.57-0.289-1.029-0.24-1.376,0.144c-0.347,0.385-0.37,0.83-0.066,1.337c0.31,0.507,1.102,1.336,2.378,2.488
					c1.175,1.061,2.048,1.731,2.621,2.009c0.552,0.253,0.995,0.194,1.33-0.176c0.329-0.364,0.353-0.795,0.073-1.293
					C93.421,106.212,92.746,105.479,91.672,104.508z"/>
				<path style="fill:#565656;" d="M97.178,98.184c1.417,1.28,2.281,2.347,2.592,3.201c0.311,0.854,0.132,1.651-0.538,2.393
					c-0.704,0.78-1.521,1.039-2.45,0.779c-0.912-0.251-2.168-1.1-3.769-2.546c-1.427-1.29-2.297-2.358-2.607-3.205
					c-0.311-0.854-0.127-1.657,0.552-2.409c0.607-0.672,1.288-0.963,2.044-0.872c0.502,0.064,1.082,0.304,1.738,0.72
					C95.353,96.623,96.166,97.27,97.178,98.184z M96.269,99.42c-1.389-1.255-2.368-2.026-2.934-2.311
					c-0.57-0.288-1.029-0.24-1.376,0.144c-0.348,0.384-0.37,0.83-0.066,1.337c0.31,0.507,1.103,1.336,2.378,2.488
					c1.174,1.061,2.048,1.731,2.621,2.009c0.552,0.253,0.995,0.194,1.33-0.177c0.329-0.364,0.353-0.795,0.073-1.293
					C98.018,101.124,97.343,100.391,96.269,99.42z"/>
				<path style="fill:#565656;" d="M93.936,93.31l1.286-1.424c0.532-0.589,1.069-0.901,1.609-0.935
					c0.693-0.035,1.413,0.285,2.161,0.961c0.575,0.52,0.95,1.033,1.125,1.54c0.174,0.507,0.142,0.976-0.097,1.409l5.237,2.05
					l-0.991,1.097l-5.258-2.079l3.929,3.55l-0.977,1.081L93.936,93.31z M98.467,95.441c0.379-0.419,0.549-0.803,0.512-1.152
					c-0.037-0.349-0.287-0.731-0.748-1.147c-0.249-0.226-0.479-0.4-0.688-0.523c-0.21-0.123-0.405-0.196-0.586-0.218
					c-0.181-0.022-0.354,0.005-0.517,0.081c-0.163,0.076-0.321,0.199-0.475,0.369l-0.164,0.182L98.467,95.441z"/>
			</g>
			<g>
				<path style="fill:#565656;" d="M80.185,107.744l1.287-1.424c0.62-0.686,1.244-1.029,1.872-1.027
					c0.632,0.004,1.327,0.349,2.086,1.035c1.067,0.964,1.473,1.901,1.219,2.81c-0.143,0.444-0.483,0.964-1.022,1.559l3.56,3.217
					l-0.977,1.081L80.185,107.744z M84.701,109.861c0.404-0.447,0.592-0.837,0.565-1.169c-0.027-0.339-0.274-0.72-0.742-1.143
					c-0.478-0.432-0.903-0.665-1.275-0.699c-0.372-0.034-0.719,0.127-1.042,0.484l-0.136,0.151L84.701,109.861z"/>
				<path style="fill:#565656;" d="M91.838,103.31c1.417,1.28,2.281,2.347,2.592,3.201c0.311,0.854,0.132,1.651-0.538,2.393
					c-0.704,0.78-1.521,1.039-2.45,0.779c-0.912-0.251-2.168-1.1-3.769-2.547c-1.428-1.29-2.297-2.358-2.607-3.205
					c-0.311-0.854-0.127-1.657,0.552-2.408c0.607-0.672,1.288-0.963,2.044-0.872c0.502,0.064,1.082,0.304,1.738,0.72
					C90.013,101.749,90.826,102.396,91.838,103.31z M90.928,104.546c-1.389-1.255-2.367-2.026-2.934-2.311
					c-0.57-0.288-1.029-0.24-1.376,0.144c-0.347,0.385-0.369,0.83-0.066,1.337c0.31,0.507,1.103,1.336,2.378,2.488
					c1.175,1.061,2.048,1.731,2.621,2.01c0.552,0.253,0.995,0.194,1.33-0.177c0.329-0.364,0.353-0.795,0.073-1.293
					C92.678,106.249,92.003,105.517,90.928,104.546z"/>
				<path style="fill:#565656;" d="M96.435,98.222c1.417,1.28,2.281,2.347,2.592,3.201c0.311,0.854,0.132,1.651-0.538,2.393
					c-0.704,0.779-1.521,1.039-2.45,0.779c-0.912-0.251-2.169-1.1-3.769-2.546c-1.427-1.29-2.297-2.358-2.607-3.205
					c-0.311-0.854-0.127-1.657,0.552-2.408c0.607-0.672,1.288-0.963,2.044-0.872c0.502,0.064,1.082,0.304,1.738,0.72
					C94.61,96.661,95.423,97.308,96.435,98.222z M95.526,99.458c-1.389-1.255-2.368-2.026-2.934-2.311
					c-0.57-0.289-1.029-0.241-1.376,0.144c-0.348,0.385-0.37,0.83-0.066,1.337c0.31,0.507,1.103,1.336,2.378,2.488
					c1.175,1.061,2.048,1.731,2.621,2.01c0.552,0.253,0.995,0.194,1.33-0.176c0.329-0.364,0.353-0.795,0.073-1.293
					C97.275,101.161,96.6,100.428,95.526,99.458z"/>
				<path style="fill:#565656;" d="M93.192,93.347l1.287-1.424c0.532-0.589,1.069-0.901,1.609-0.935
					c0.693-0.035,1.413,0.285,2.161,0.962c0.575,0.52,0.95,1.033,1.125,1.54c0.174,0.507,0.142,0.976-0.097,1.409l5.237,2.05
					l-0.991,1.097l-5.258-2.079l3.929,3.55l-0.977,1.081L93.192,93.347z M97.724,95.478c0.379-0.419,0.549-0.803,0.512-1.152
					c-0.037-0.349-0.287-0.731-0.747-1.147c-0.25-0.225-0.479-0.4-0.689-0.523c-0.21-0.123-0.405-0.196-0.586-0.218
					c-0.181-0.022-0.354,0.005-0.517,0.081c-0.163,0.076-0.321,0.199-0.475,0.369l-0.164,0.182L97.724,95.478z"/>
			</g>
		</g>
		<g>
			<g style="opacity:0.3;">
				<path style="fill:#565656;" d="M183.317,43.623h1.135l2.318,10.815h-1.443l-0.406-2.108h-2.143l-0.413,2.108h-1.401
					L183.317,43.623z M184.711,51.202l-0.322-1.723c-0.215-1.172-0.39-2.424-0.525-3.754c-0.065,0.649-0.149,1.306-0.252,1.972
					c-0.103,0.665-0.224,1.372-0.364,2.119l-0.266,1.387H184.711z"/>
				<path style="fill:#565656;" d="M186.518,43.623h1.436l0.652,3.993l0.112,0.721l0.231,1.569c0.037,0.266,0.071,0.509,0.102,0.729
					c0.03,0.219,0.057,0.418,0.081,0.595l0.07,0.532c0.014-0.107,0.026-0.203,0.035-0.287c0.009-0.084,0.019-0.154,0.028-0.21
					l0.189-1.254l0.245-1.646c0.023-0.149,0.046-0.287,0.067-0.413c0.021-0.126,0.041-0.238,0.06-0.336l0.701-3.993h1.359
					l-2.122,10.815h-1.156L186.518,43.623z"/>
				<path style="fill:#565656;" d="M192.682,43.623h3.874v1.233h-2.417v3.425h2.143v1.233h-2.143v3.691h2.417v1.233h-3.874V43.623z"
					/>
				<path style="fill:#565656;" d="M197.893,43.623h1.919c0.794,0,1.385,0.189,1.772,0.567c0.49,0.49,0.736,1.24,0.736,2.249
					c0,0.775-0.13,1.397-0.389,1.867c-0.259,0.469-0.629,0.76-1.11,0.872l1.989,5.26h-1.478l-1.982-5.295v5.295h-1.457V43.623z
					 M199.35,48.414c0.565,0,0.964-0.131,1.198-0.392c0.233-0.262,0.35-0.703,0.35-1.324c0-0.336-0.025-0.623-0.074-0.862
					c-0.049-0.238-0.126-0.432-0.231-0.581c-0.105-0.149-0.241-0.259-0.406-0.329c-0.166-0.07-0.363-0.105-0.592-0.105h-0.245
					V48.414z"/>
				<path style="fill:#565656;" d="M205.479,43.623h1.135l2.318,10.815h-1.443l-0.406-2.108h-2.143l-0.413,2.108h-1.401
					L205.479,43.623z M206.873,51.202l-0.322-1.723c-0.215-1.172-0.39-2.424-0.525-3.754c-0.065,0.649-0.149,1.306-0.252,1.972
					c-0.103,0.665-0.224,1.372-0.364,2.119l-0.266,1.387H206.873z"/>
				<path style="fill:#565656;" d="M212.337,48.75h2.648v0.42c0,2.106-0.184,3.528-0.553,4.266
					c-0.364,0.757-1.046,1.135-2.045,1.135c-1.032,0-1.768-0.42-2.206-1.261c-0.434-0.84-0.651-2.253-0.651-4.238
					c0-2.27,0.238-3.78,0.714-4.532c0.448-0.705,1.137-1.058,2.066-1.058c0.71,0,1.263,0.17,1.66,0.511
					c0.402,0.346,0.715,0.913,0.939,1.702l-1.359,0.567c-0.061-0.285-0.128-0.524-0.203-0.718c-0.075-0.194-0.156-0.344-0.245-0.452
					c-0.177-0.22-0.444-0.329-0.798-0.329c-0.486,0-0.817,0.299-0.995,0.897c-0.177,0.626-0.266,1.749-0.266,3.369
					c0,1.639,0.091,2.748,0.273,3.327c0.182,0.579,0.525,0.869,1.03,0.869c0.462,0,0.787-0.205,0.974-0.616
					c0.191-0.439,0.287-1.144,0.287-2.115V50.2v-0.217h-1.268V48.75z"/>
				<path style="fill:#565656;" d="M216.434,43.623h3.873v1.233h-2.416v3.425h2.143v1.233h-2.143v3.691h2.416v1.233h-3.873V43.623z"
					/>
			</g>
			<g>
				<path style="fill:#565656;" d="M182.79,43.097h1.135l2.318,10.815h-1.443l-0.406-2.108h-2.143l-0.413,2.108h-1.401
					L182.79,43.097z M184.184,50.676l-0.322-1.723c-0.215-1.172-0.39-2.424-0.525-3.754c-0.065,0.649-0.149,1.306-0.252,1.972
					c-0.103,0.666-0.224,1.372-0.364,2.119l-0.266,1.387H184.184z"/>
				<path style="fill:#565656;" d="M185.992,43.097h1.436l0.651,3.993l0.112,0.722l0.231,1.569c0.037,0.266,0.071,0.509,0.102,0.729
					c0.03,0.219,0.057,0.418,0.081,0.595l0.07,0.532c0.014-0.107,0.026-0.203,0.035-0.287c0.009-0.084,0.019-0.154,0.028-0.21
					l0.189-1.254l0.245-1.646c0.023-0.149,0.046-0.287,0.066-0.413c0.021-0.126,0.041-0.238,0.06-0.336l0.7-3.993h1.359
					l-2.122,10.815h-1.156L185.992,43.097z"/>
				<path style="fill:#565656;" d="M192.156,43.097h3.873v1.233h-2.417v3.425h2.143v1.233h-2.143v3.691h2.417v1.233h-3.873V43.097z"
					/>
				<path style="fill:#565656;" d="M197.367,43.097h1.919c0.794,0,1.385,0.189,1.772,0.567c0.49,0.49,0.735,1.24,0.735,2.249
					c0,0.775-0.13,1.397-0.389,1.867c-0.259,0.469-0.629,0.76-1.11,0.872l1.989,5.26h-1.478l-1.982-5.295v5.295h-1.457V43.097z
					 M198.824,47.888c0.565,0,0.964-0.131,1.198-0.392c0.233-0.262,0.35-0.703,0.35-1.324c0-0.336-0.025-0.623-0.074-0.862
					c-0.049-0.238-0.126-0.432-0.231-0.581c-0.105-0.149-0.24-0.259-0.406-0.329c-0.166-0.07-0.363-0.105-0.592-0.105h-0.245V47.888
					z"/>
				<path style="fill:#565656;" d="M204.953,43.097h1.135l2.319,10.815h-1.443l-0.406-2.108h-2.143L204,53.912h-1.401
					L204.953,43.097z M206.347,50.676l-0.322-1.723c-0.215-1.172-0.39-2.424-0.525-3.754c-0.065,0.649-0.149,1.306-0.252,1.972
					c-0.103,0.666-0.224,1.372-0.364,2.119l-0.266,1.387H206.347z"/>
				<path style="fill:#565656;" d="M211.81,48.224h2.648v0.42c0,2.106-0.184,3.528-0.553,4.266
					c-0.364,0.757-1.046,1.135-2.045,1.135c-1.032,0-1.768-0.42-2.206-1.261c-0.434-0.84-0.651-2.253-0.651-4.238
					c0-2.27,0.238-3.78,0.714-4.532c0.448-0.705,1.137-1.058,2.066-1.058c0.71,0,1.263,0.17,1.66,0.511
					c0.402,0.346,0.714,0.913,0.939,1.702l-1.359,0.567c-0.061-0.285-0.128-0.524-0.203-0.718c-0.075-0.194-0.156-0.344-0.245-0.452
					c-0.178-0.219-0.444-0.329-0.799-0.329c-0.486,0-0.817,0.299-0.995,0.896c-0.177,0.626-0.266,1.749-0.266,3.369
					c0,1.639,0.091,2.748,0.273,3.327c0.182,0.579,0.525,0.869,1.03,0.869c0.462,0,0.787-0.206,0.974-0.617
					c0.191-0.439,0.287-1.144,0.287-2.115v-0.294v-0.217h-1.268V48.224z"/>
				<path style="fill:#565656;" d="M215.908,43.097h3.874v1.233h-2.417v3.425h2.143v1.233h-2.143v3.691h2.417v1.233h-3.874V43.097z"
					/>
			</g>
		</g>
		<g>
			<g style="opacity:0.3;">
				<path style="fill:#565656;" d="M308.816,92.281l1.746,1.991l-0.316,0.277c-1.583,1.389-2.774,2.188-3.572,2.397
					c-0.809,0.225-1.543-0.038-2.202-0.79c-0.681-0.776-0.849-1.606-0.507-2.49c0.346-0.881,1.264-1.975,2.757-3.284
					c1.706-1.496,2.999-2.313,3.878-2.451c0.826-0.128,1.545,0.158,2.158,0.856c0.468,0.534,0.705,1.062,0.71,1.585
					c0.005,0.53-0.215,1.139-0.661,1.828l-1.323-0.648c0.174-0.233,0.309-0.442,0.406-0.626c0.096-0.184,0.156-0.345,0.178-0.482
					c0.048-0.278-0.045-0.551-0.279-0.817c-0.32-0.365-0.764-0.417-1.33-0.157c-0.587,0.279-1.49,0.953-2.709,2.021
					c-1.232,1.081-2.006,1.881-2.321,2.399s-0.307,0.968,0.026,1.347c0.305,0.348,0.673,0.456,1.105,0.326
					c0.456-0.145,1.05-0.538,1.78-1.179l0.221-0.194l0.163-0.143l-0.836-0.953L308.816,92.281z"/>
				<path style="fill:#565656;" d="M314.677,99.793c-1.436,1.259-2.596,1.994-3.48,2.204c-0.884,0.21-1.655-0.06-2.314-0.812
					c-0.693-0.79-0.856-1.631-0.49-2.524c0.355-0.877,1.344-2.027,2.966-3.449c1.447-1.268,2.608-2.008,3.486-2.219
					c0.884-0.21,1.66,0.066,2.328,0.828c0.597,0.681,0.807,1.392,0.63,2.131c-0.122,0.492-0.427,1.039-0.917,1.642
					C316.439,98.161,315.703,98.894,314.677,99.793z M313.555,98.746c1.408-1.235,2.286-2.117,2.635-2.647
					c0.353-0.533,0.358-0.994,0.016-1.384c-0.342-0.39-0.782-0.463-1.321-0.221c-0.539,0.249-1.455,0.94-2.747,2.074
					c-1.19,1.044-1.957,1.834-2.3,2.371c-0.315,0.519-0.308,0.966,0.021,1.341c0.323,0.369,0.749,0.443,1.276,0.223
					C311.66,100.286,312.466,99.701,313.555,98.746z"/>
				<path style="fill:#565656;" d="M319.199,104.948c-1.436,1.259-2.596,1.994-3.48,2.204c-0.884,0.21-1.656-0.061-2.315-0.812
					c-0.693-0.79-0.856-1.631-0.49-2.524c0.355-0.877,1.344-2.026,2.966-3.449c1.446-1.269,2.608-2.008,3.486-2.218
					c0.884-0.21,1.66,0.066,2.328,0.828c0.597,0.681,0.807,1.391,0.63,2.131c-0.122,0.492-0.427,1.039-0.917,1.642
					C320.96,103.316,320.224,104.049,319.199,104.948z M318.076,103.902c1.408-1.235,2.286-2.117,2.635-2.647
					c0.353-0.533,0.358-0.994,0.016-1.384c-0.342-0.39-0.782-0.463-1.321-0.221c-0.539,0.249-1.455,0.94-2.747,2.073
					c-1.19,1.044-1.957,1.834-2.3,2.371c-0.315,0.519-0.308,0.966,0.021,1.341c0.323,0.369,0.749,0.443,1.276,0.223
					C316.182,105.442,316.988,104.856,318.076,103.902z"/>
				<path style="fill:#565656;" d="M324.416,102.292l1.182,1.348c0.36,0.411,0.618,0.797,0.773,1.157
					c0.14,0.337,0.187,0.706,0.141,1.106c-0.069,0.601-0.317,1.203-0.744,1.808c-0.409,0.589-1.102,1.311-2.078,2.167
					c-0.895,0.785-1.689,1.354-2.38,1.705c-0.664,0.334-1.28,0.464-1.847,0.39c-0.703-0.086-1.503-0.641-2.402-1.666l-0.776-0.885
					L324.416,102.292z M318.204,109.678c0.585,0.667,1.178,0.936,1.779,0.806c0.607-0.122,1.493-0.695,2.659-1.717
					c1.253-1.099,2.018-1.966,2.295-2.599c0.276-0.634,0.156-1.246-0.361-1.835l-0.12-0.137L318.204,109.678z"/>
			</g>
			<g>
				<path style="fill:#565656;" d="M308.865,91.538l1.746,1.991l-0.316,0.277c-1.583,1.389-2.774,2.188-3.572,2.397
					c-0.809,0.225-1.543-0.038-2.202-0.79c-0.68-0.776-0.849-1.606-0.507-2.49c0.346-0.881,1.264-1.975,2.757-3.284
					c1.706-1.496,2.999-2.313,3.878-2.451c0.826-0.128,1.545,0.158,2.158,0.856c0.468,0.534,0.705,1.062,0.71,1.585
					c0.005,0.53-0.215,1.139-0.661,1.828l-1.323-0.647c0.174-0.233,0.31-0.442,0.406-0.626c0.096-0.184,0.156-0.345,0.178-0.482
					c0.048-0.278-0.045-0.55-0.279-0.817c-0.32-0.365-0.764-0.417-1.33-0.157c-0.588,0.279-1.49,0.953-2.709,2.021
					c-1.232,1.081-2.006,1.88-2.321,2.399c-0.315,0.519-0.306,0.968,0.026,1.347c0.305,0.348,0.673,0.456,1.105,0.326
					c0.456-0.146,1.049-0.538,1.78-1.179l0.221-0.194l0.163-0.143l-0.836-0.953L308.865,91.538z"/>
				<path style="fill:#565656;" d="M314.726,99.05c-1.436,1.259-2.596,1.994-3.48,2.204c-0.884,0.21-1.656-0.061-2.314-0.812
					c-0.693-0.79-0.856-1.631-0.49-2.524c0.355-0.877,1.344-2.027,2.966-3.449c1.446-1.269,2.608-2.008,3.486-2.219
					c0.884-0.21,1.66,0.066,2.328,0.828c0.597,0.681,0.807,1.391,0.63,2.131c-0.121,0.492-0.427,1.039-0.917,1.643
					C316.487,97.418,315.751,98.151,314.726,99.05z M313.603,98.004c1.408-1.235,2.286-2.117,2.635-2.647
					c0.353-0.533,0.358-0.994,0.016-1.384c-0.342-0.39-0.782-0.463-1.321-0.221c-0.539,0.249-1.455,0.94-2.747,2.073
					c-1.19,1.044-1.957,1.834-2.3,2.371c-0.315,0.519-0.308,0.966,0.021,1.342c0.323,0.369,0.749,0.443,1.276,0.223
					C311.709,99.544,312.515,98.958,313.603,98.004z"/>
				<path style="fill:#565656;" d="M319.247,104.206c-1.436,1.259-2.596,1.994-3.48,2.204c-0.884,0.21-1.656-0.061-2.314-0.812
					c-0.693-0.79-0.856-1.631-0.49-2.524c0.355-0.877,1.344-2.026,2.966-3.449c1.447-1.269,2.608-2.008,3.486-2.219
					c0.884-0.21,1.66,0.066,2.328,0.828c0.597,0.681,0.807,1.392,0.63,2.131c-0.121,0.492-0.427,1.039-0.917,1.642
					C321.009,102.574,320.273,103.307,319.247,104.206z M318.125,103.159c1.408-1.235,2.286-2.117,2.635-2.647
					c0.353-0.533,0.358-0.994,0.016-1.384c-0.342-0.39-0.782-0.463-1.321-0.221c-0.539,0.249-1.455,0.94-2.747,2.073
					c-1.19,1.044-1.957,1.834-2.3,2.371c-0.315,0.519-0.308,0.966,0.021,1.341c0.323,0.369,0.749,0.443,1.276,0.223
					C316.23,104.699,317.036,104.114,318.125,103.159z"/>
				<path style="fill:#565656;" d="M324.465,101.549l1.182,1.348c0.36,0.411,0.618,0.797,0.773,1.158
					c0.14,0.337,0.187,0.705,0.141,1.106c-0.069,0.601-0.317,1.204-0.744,1.808c-0.409,0.589-1.102,1.311-2.078,2.167
					c-0.895,0.785-1.689,1.354-2.38,1.705c-0.664,0.334-1.279,0.464-1.847,0.39c-0.702-0.086-1.503-0.641-2.402-1.666l-0.776-0.885
					L324.465,101.549z M318.253,108.935c0.585,0.667,1.178,0.936,1.779,0.807c0.607-0.122,1.493-0.695,2.659-1.717
					c1.253-1.099,2.018-1.966,2.295-2.599c0.276-0.634,0.156-1.246-0.361-1.835l-0.12-0.137L318.253,108.935z"/>
			</g>
		</g>
		<g>
			<g style="opacity:0.3;">
				<path style="fill:#565656;" d="M359.649,203.561l-0.156,1.449l-4.206-0.453l-0.229,2.124l4.206,0.453l-0.156,1.449
					l-10.753-1.159l0.156-1.449l5.321,0.573l0.229-2.124l-5.321-0.573l0.156-1.449L359.649,203.561z"/>
				<path style="fill:#565656;" d="M358.764,211.771l-0.121,1.128l-11.001,1.147l0.155-1.435l2.14-0.178l0.23-2.131l-2.052-0.637
					l0.15-1.393L358.764,211.771z M351.08,212.345l1.748-0.136c1.188-0.088,2.451-0.128,3.789-0.12
					c-0.638-0.135-1.283-0.289-1.933-0.462c-0.651-0.173-1.34-0.37-2.068-0.589l-1.35-0.413L351.08,212.345z"/>
				<path style="fill:#565656;" d="M358.303,216.054l-0.206,1.908c-0.099,0.919-0.403,1.563-0.913,1.931
					c-0.514,0.367-1.279,0.496-2.296,0.387c-1.43-0.154-2.309-0.674-2.636-1.559c-0.145-0.443-0.174-1.064-0.088-1.862l-4.77-0.514
					l0.156-1.449L358.303,216.054z M353.404,216.992c-0.065,0.599,0.012,1.025,0.229,1.279c0.221,0.259,0.645,0.422,1.272,0.489
					c0.641,0.069,1.121,0.008,1.443-0.183c0.321-0.191,0.508-0.525,0.559-1.004l0.022-0.202L353.404,216.992z"/>
				<path style="fill:#565656;" d="M357.694,221.709l-0.206,1.908c-0.099,0.919-0.403,1.563-0.913,1.931
					c-0.514,0.367-1.279,0.496-2.296,0.387c-1.43-0.154-2.309-0.674-2.636-1.559c-0.145-0.443-0.174-1.064-0.088-1.862l-4.771-0.514
					l0.156-1.449L357.694,221.709z M352.795,222.647c-0.065,0.599,0.012,1.025,0.229,1.279c0.221,0.259,0.645,0.422,1.272,0.489
					c0.641,0.069,1.122,0.008,1.443-0.183c0.321-0.191,0.508-0.525,0.559-1.004l0.022-0.202L352.795,222.647z"/>
				<path style="fill:#565656;" d="M357.177,226.508l-0.165,1.532l-2.417,0.458c-0.072,0.016-0.151,0.031-0.237,0.045
					c-0.086,0.014-0.18,0.032-0.281,0.054c-0.873,0.174-1.603,0.278-2.19,0.314c0.567,0.146,0.961,0.258,1.182,0.339l0.937,0.326
					l0.367,0.124l2.366,0.861l-0.163,1.511l-5.927-2.534l-4.624-0.498l0.156-1.449l4.624,0.498L357.177,226.508z"/>
			</g>
			<g>
				<path style="fill:#565656;" d="M360.228,203.094l-0.156,1.449l-4.206-0.453l-0.229,2.124l4.206,0.453l-0.156,1.449
					l-10.753-1.159l0.156-1.449l5.321,0.573l0.229-2.124l-5.321-0.573l0.156-1.449L360.228,203.094z"/>
				<path style="fill:#565656;" d="M359.344,211.305l-0.122,1.128l-11.001,1.147l0.155-1.435l2.14-0.178l0.23-2.131l-2.052-0.637
					l0.15-1.393L359.344,211.305z M351.659,211.878l1.748-0.136c1.188-0.088,2.451-0.128,3.789-0.12
					c-0.638-0.134-1.283-0.288-1.933-0.462c-0.651-0.173-1.34-0.37-2.068-0.589l-1.35-0.413L351.659,211.878z"/>
				<path style="fill:#565656;" d="M358.883,215.587l-0.206,1.908c-0.099,0.919-0.403,1.563-0.913,1.931
					c-0.514,0.367-1.279,0.496-2.296,0.387c-1.43-0.154-2.309-0.674-2.636-1.559c-0.145-0.443-0.174-1.064-0.088-1.862l-4.771-0.514
					l0.156-1.449L358.883,215.587z M353.984,216.525c-0.065,0.599,0.012,1.025,0.229,1.279c0.221,0.259,0.645,0.422,1.272,0.489
					c0.641,0.069,1.122,0.008,1.443-0.183c0.321-0.191,0.507-0.526,0.559-1.004l0.022-0.202L353.984,216.525z"/>
				<path style="fill:#565656;" d="M358.273,221.242l-0.206,1.908c-0.099,0.919-0.403,1.563-0.913,1.931
					c-0.514,0.367-1.279,0.496-2.296,0.387c-1.43-0.154-2.309-0.674-2.636-1.559c-0.145-0.443-0.174-1.064-0.088-1.862l-4.77-0.514
					l0.156-1.449L358.273,221.242z M353.375,222.18c-0.065,0.599,0.012,1.025,0.229,1.279c0.221,0.259,0.645,0.422,1.272,0.489
					c0.641,0.069,1.122,0.008,1.443-0.183c0.321-0.191,0.508-0.525,0.559-1.004l0.022-0.202L353.375,222.18z"/>
				<path style="fill:#565656;" d="M357.756,226.041l-0.165,1.532l-2.417,0.458c-0.072,0.016-0.151,0.031-0.237,0.045
					c-0.086,0.014-0.179,0.032-0.281,0.054c-0.873,0.174-1.603,0.278-2.19,0.314c0.567,0.146,0.961,0.258,1.182,0.339l0.937,0.326
					l0.367,0.124l2.366,0.861l-0.163,1.511l-5.927-2.534l-4.624-0.498l0.156-1.449l4.624,0.498L357.756,226.041z"/>
			</g>
		</g>
		<g>
			<g>
				<g style="opacity:0.3;">
					<path style="fill:#565656;" d="M54.784,210.384l-0.034-1.134l10.741-2.64l0.043,1.442l-2.095,0.469l0.064,2.142l2.12,0.35
						l0.042,1.4L54.784,210.384z M62.318,208.764l-1.713,0.374c-1.165,0.25-2.411,0.462-3.737,0.637
						c0.651,0.046,1.31,0.11,1.979,0.193c0.668,0.083,1.378,0.183,2.129,0.301l1.394,0.225L62.318,208.764z"/>
					<path style="fill:#565656;" d="M54.655,206.078l-0.054-1.792c-0.016-0.546,0.031-1.008,0.141-1.385
						c0.106-0.349,0.305-0.663,0.596-0.943c0.436-0.419,1.011-0.726,1.724-0.921c0.69-0.193,1.684-0.31,2.982-0.348
						c1.19-0.036,2.164,0.031,2.921,0.2c0.724,0.165,1.282,0.457,1.673,0.875c0.487,0.513,0.751,1.452,0.792,2.814l0.035,1.176
						L54.655,206.078z M64.148,204.337c-0.026-0.887-0.312-1.472-0.858-1.754c-0.546-0.292-1.594-0.415-3.143-0.369
						c-1.666,0.05-2.808,0.231-3.424,0.544c-0.617,0.313-0.913,0.861-0.89,1.645l0.006,0.182L64.148,204.337z"/>
				</g>
				<g>
					<path style="fill:#565656;" d="M54.273,210.926l-0.034-1.134l10.741-2.64l0.043,1.442l-2.095,0.469l0.064,2.142l2.12,0.35
						l0.042,1.4L54.273,210.926z M61.807,209.306l-1.713,0.373c-1.165,0.25-2.411,0.462-3.737,0.637
						c0.651,0.046,1.31,0.11,1.978,0.193c0.668,0.083,1.378,0.183,2.129,0.301l1.394,0.225L61.807,209.306z"/>
					<path style="fill:#565656;" d="M54.145,206.62l-0.054-1.792c-0.016-0.546,0.031-1.008,0.141-1.385
						c0.106-0.349,0.305-0.663,0.596-0.943c0.436-0.419,1.011-0.726,1.724-0.92c0.69-0.194,1.684-0.31,2.982-0.348
						c1.19-0.035,2.164,0.031,2.921,0.2c0.724,0.165,1.282,0.457,1.673,0.875c0.487,0.513,0.751,1.452,0.792,2.814l0.035,1.176
						L54.145,206.62z M63.637,204.879c-0.026-0.887-0.313-1.472-0.858-1.754c-0.546-0.292-1.594-0.415-3.143-0.369
						c-1.666,0.05-2.808,0.231-3.424,0.544c-0.617,0.313-0.913,0.861-0.89,1.645l0.005,0.182L63.637,204.879z"/>
				</g>
			</g>
			<path style="fill:none;" d="M56.132,216.328l0.002,0.063c0.001,0.038,0.004,0.061,0.009,0.07l3.004-0.09
				c-0.068-0.284-0.183-0.503-0.356-0.64c-0.282-0.211-0.768-0.306-1.459-0.286c-0.471,0.014-0.84,0.097-1.117,0.243
				c-0.061,0.154-0.091,0.329-0.085,0.528L56.132,216.328z"/>
			<path style="fill:none;" d="M62.194,215.223c-0.506,0.015-0.896,0.092-1.175,0.228c-0.097,0.229-0.147,0.513-0.137,0.868
				l3.074-0.092c-0.066-0.316-0.183-0.555-0.359-0.703C63.334,215.304,62.866,215.203,62.194,215.223z"/>
			<path style="fill:#565656;" d="M61.019,215.452c-0.102,0.05-0.192,0.106-0.263,0.172c-0.273,0.242-0.401,0.654-0.383,1.238
				l3.648-0.109c-0.006-0.198-0.03-0.368-0.063-0.525l-3.074,0.092C60.872,215.964,60.922,215.68,61.019,215.452z"/>
			<path style="fill:#565656;" d="M56.143,216.461c-0.005-0.009-0.008-0.032-0.009-0.07l-0.002-0.063l-0.003-0.112
				c-0.006-0.199,0.024-0.374,0.085-0.528c-0.409,0.214-0.611,0.569-0.596,1.07l0.003,0.112l0.002,0.063
				c0.001,0.037,0.004,0.061,0.009,0.07l3.585-0.107c-0.006-0.2-0.033-0.369-0.071-0.525L56.143,216.461z"/>
			<path style="fill:#565656;" d="M58.887,214.285c0.361,0.19,0.64,0.537,0.837,1.04c0.114-0.31,0.248-0.567,0.4-0.777
				c-0.187-0.374-0.427-0.647-0.727-0.805c-0.361-0.19-0.908-0.274-1.64-0.252c-1.262,0.038-2.09,0.404-2.502,1.086
				c0.466-0.331,1.123-0.518,1.992-0.544C57.979,214.01,58.526,214.095,58.887,214.285z"/>
			<path style="fill:#565656;" d="M61.094,213.559c-0.201,0.127-0.378,0.318-0.534,0.561c0.008-0.006,0.015-0.014,0.024-0.019
				c0.353-0.23,0.891-0.356,1.614-0.378c1.984-0.059,3.001,0.761,3.052,2.46l0.041,1.378l0.526-0.016l-0.057-1.905
				c-0.051-1.699-1.068-2.519-3.052-2.46C61.985,213.203,61.447,213.329,61.094,213.559z"/>
			<path style="fill:#565656;" d="M60.56,214.12c-0.16,0.105-0.305,0.249-0.437,0.428c0.038,0.076,0.077,0.15,0.11,0.235
				C60.328,214.525,60.439,214.308,60.56,214.12z"/>
			<path style="fill:#565656;" d="M54.948,215.894c-0.016-0.528,0.092-0.963,0.306-1.318c-0.563,0.4-0.842,1.014-0.817,1.859
				l0.059,1.975l10.81-0.323l-0.016-0.526l-10.284,0.307L54.948,215.894z"/>
			<path style="fill:#565656;" d="M58.79,215.731c0.173,0.137,0.288,0.356,0.356,0.64l0.581-0.017
				c-0.017-0.565-0.159-0.953-0.427-1.164c-0.282-0.211-0.768-0.307-1.459-0.286c-0.89,0.027-1.431,0.289-1.627,0.784
				c0.277-0.145,0.646-0.228,1.117-0.243C58.021,215.425,58.508,215.52,58.79,215.731z"/>
			<path style="fill:#565656;" d="M64.108,214.983c-0.264-0.221-0.731-0.322-1.404-0.302c-0.691,0.021-1.17,0.154-1.439,0.4
				c-0.107,0.095-0.185,0.223-0.247,0.37c0.279-0.136,0.669-0.213,1.175-0.228c0.672-0.02,1.14,0.081,1.403,0.302
				c0.176,0.148,0.292,0.387,0.359,0.703l0.574-0.017C64.512,215.613,64.372,215.204,64.108,214.983z"/>
			<path style="fill:#565656;" d="M62.198,213.723c-0.723,0.022-1.262,0.148-1.614,0.378c-0.008,0.005-0.015,0.014-0.024,0.019
				c-0.121,0.188-0.232,0.405-0.326,0.663c-0.033-0.085-0.072-0.159-0.11-0.235c-0.153,0.21-0.287,0.466-0.4,0.777
				c-0.197-0.503-0.476-0.85-0.837-1.04c-0.361-0.19-0.908-0.274-1.64-0.253c-0.869,0.026-1.526,0.213-1.992,0.544
				c-0.214,0.354-0.322,0.789-0.306,1.318l0.059,1.975l10.284-0.307l-0.041-1.378C65.199,214.484,64.182,213.664,62.198,213.723z
				 M55.632,217.003c-0.005-0.009-0.008-0.033-0.009-0.07l-0.002-0.063l-0.003-0.112c-0.015-0.501,0.187-0.855,0.596-1.07
				c0.197-0.495,0.737-0.758,1.627-0.784c0.691-0.021,1.177,0.075,1.459,0.286c0.268,0.211,0.41,0.599,0.427,1.164l-0.581,0.017
				c0.037,0.155,0.065,0.325,0.071,0.525L55.632,217.003z M64.02,216.753l-3.648,0.109c-0.018-0.584,0.11-0.996,0.383-1.238
				c0.072-0.066,0.161-0.122,0.263-0.172c0.062-0.147,0.14-0.275,0.247-0.37c0.268-0.246,0.748-0.38,1.439-0.4
				c0.672-0.02,1.14,0.08,1.404,0.302c0.264,0.221,0.404,0.63,0.422,1.228l-0.574,0.017
				C63.989,216.385,64.014,216.554,64.02,216.753z"/>
		</g>
		<g>
			<linearGradient id="SVGID_1_" gradientUnits="userSpaceOnUse" x1="72.5743" y1="196.1293" x2="112.5683" y2="196.1293">
				<stop  offset="0" style="stop-color:#D32A16"/>
				<stop  offset="1" style="stop-color:#830E00"/>
			</linearGradient>
			<path style="fill:url(#SVGID_1_);" d="M104.727,195.603c0-13.558,2.675-26.49,7.515-38.305l-29.763-12.18
				c-6.379,15.572-9.905,32.615-9.905,50.484c0,18.272,3.681,35.683,10.335,51.538l29.659-12.434
				C107.519,222.677,104.727,209.466,104.727,195.603z"/>
			
				<linearGradient id="SVGID_00000160158459378857703180000008859204138832065693_" gradientUnits="userSpaceOnUse" x1="244.1502" y1="114.3674" x2="328.7816" y2="114.3674">
				<stop  offset="0" style="stop-color:#90D849"/>
				<stop  offset="1" style="stop-color:#4A9E00"/>
			</linearGradient>
			<path style="fill:url(#SVGID_00000160158459378857703180000008859204138832065693_);" d="M299.123,156.499l29.659-12.434
				c-13.644-32.507-39.805-58.455-72.452-71.829l-12.18,29.763C268.921,112.146,288.771,131.834,299.123,156.499z"/>
			
				<linearGradient id="SVGID_00000034066091064844058580000013774675356643134888_" gradientUnits="userSpaceOnUse" x1="82.4791" y1="114.9824" x2="166.7415" y2="114.9824">
				<stop  offset="0" style="stop-color:#FFA400"/>
				<stop  offset="0.9971" style="stop-color:#DD6400"/>
			</linearGradient>
			<path style="fill:url(#SVGID_00000034066091064844058580000013774675356643134888_);" d="M166.742,102.326l-12.434-29.659
				c-32.507,13.644-58.455,39.805-71.829,72.452l29.763,12.18C122.389,132.527,142.077,112.678,166.742,102.326z"/>
			
				<linearGradient id="SVGID_00000027573728239557654180000009249107328965329829_" gradientUnits="userSpaceOnUse" x1="299.1227" y1="195.076" x2="339.1168" y2="195.076">
				<stop  offset="0" style="stop-color:#14B063"/>
				<stop  offset="1" style="stop-color:#007D3E"/>
			</linearGradient>
			<path style="fill:url(#SVGID_00000027573728239557654180000009249107328965329829_);" d="M328.782,144.065l-29.659,12.434
				c5.049,12.029,7.842,25.24,7.842,39.104c0,13.558-2.675,26.489-7.515,38.305l29.763,12.18
				c6.379-15.572,9.905-32.615,9.905-50.484C339.117,177.331,335.436,159.92,328.782,144.065z"/>
			
				<linearGradient id="SVGID_00000064314067923400012430000013110036588938980759_" gradientUnits="userSpaceOnUse" x1="154.3079" y1="82.3285" x2="256.3297" y2="82.3285">
				<stop  offset="0" style="stop-color:#FBF161"/>
				<stop  offset="1" style="stop-color:#FCB600"/>
			</linearGradient>
			<path style="fill:url(#SVGID_00000064314067923400012430000013110036588938980759_);" d="M205.846,94.484
				c13.558,0,26.49,2.675,38.305,7.515l12.18-29.763c-15.572-6.379-32.615-9.905-50.484-9.905c-18.272,0-35.683,3.681-51.538,10.335
				l12.434,29.659C178.771,97.276,191.982,94.484,205.846,94.484z"/>
		</g>
		<g>
			<g>
				
					<linearGradient id="SVGID_00000049941941829739965910000008603103925046946464_" gradientUnits="userSpaceOnUse" x1="72.5743" y1="196.1293" x2="112.5683" y2="196.1293">
					<stop  offset="0" style="stop-color:#D32A16"/>
					<stop  offset="1" style="stop-color:#830E00"/>
				</linearGradient>
				<path style="fill:url(#SVGID_00000049941941829739965910000008603103925046946464_);" d="M104.727,195.603
					c0-13.558,2.675-26.49,7.515-38.305l-29.763-12.18c-6.379,15.572-9.905,32.615-9.905,50.484
					c0,18.272,3.681,35.683,10.335,51.538l29.659-12.434C107.519,222.677,104.727,209.466,104.727,195.603z"/>
				<path style="fill:#FFFFFF;" d="M82.401,248.383l-0.367-0.876c-6.907-16.456-10.409-33.919-10.409-51.905
					c0-17.58,3.357-34.686,9.975-50.844l0.36-0.879l31.522,12.898l-0.36,0.88c-4.94,12.06-7.445,24.826-7.445,37.945
					c0,13.422,2.613,26.454,7.768,38.737l0.368,0.876L82.401,248.383z M83.001,146.359c-6.289,15.669-9.477,32.23-9.477,49.244
					c0,17.413,3.33,34.328,9.896,50.292l27.908-11.699c-5.012-12.258-7.553-25.238-7.553-38.594c0-13.049,2.433-25.755,7.231-37.784
					L83.001,146.359z"/>
			</g>
			<g>
				
					<linearGradient id="SVGID_00000086664168817115354040000003302359464046994051_" gradientUnits="userSpaceOnUse" x1="244.1502" y1="114.3674" x2="328.7816" y2="114.3674">
					<stop  offset="0" style="stop-color:#90D849"/>
					<stop  offset="1" style="stop-color:#4A9E00"/>
				</linearGradient>
				<path style="fill:url(#SVGID_00000086664168817115354040000003302359464046994051_);" d="M299.123,156.499l29.659-12.434
					c-13.644-32.507-39.805-58.455-72.452-71.829l-12.18,29.763C268.921,112.146,288.771,131.834,299.123,156.499z"/>
				<path style="fill:#FFFFFF;" d="M298.614,157.742l-0.367-0.876c-10.204-24.313-30.053-43.99-54.456-53.988l-0.879-0.36
					l12.898-31.522l0.88,0.36c32.699,13.396,59.294,39.763,72.967,72.341l0.368,0.876L298.614,157.742z M245.388,101.484
					c24.172,10.173,43.86,29.692,54.239,53.773l27.907-11.7c-13.461-31.423-39.145-56.885-70.687-70.079L245.388,101.484z"/>
			</g>
			<g>
				
					<linearGradient id="SVGID_00000050644829982258687660000005013373600478281654_" gradientUnits="userSpaceOnUse" x1="82.4791" y1="114.9824" x2="166.7415" y2="114.9824">
					<stop  offset="0" style="stop-color:#FFA400"/>
					<stop  offset="0.9971" style="stop-color:#DD6400"/>
				</linearGradient>
				<path style="fill:url(#SVGID_00000050644829982258687660000005013373600478281654_);" d="M166.742,102.326l-12.434-29.659
					c-32.507,13.644-58.455,39.805-71.829,72.452l29.763,12.18C122.389,132.527,142.077,112.678,166.742,102.326z"/>
				<path style="fill:#FFFFFF;" d="M112.761,158.536L81.24,145.638l0.36-0.88c13.397-32.699,39.764-59.294,72.341-72.967
					l0.876-0.368l13.168,31.411l-0.876,0.368c-24.313,10.205-43.991,30.053-53.988,54.456L112.761,158.536z M83.721,144.601
					l28.006,11.459c10.173-24.172,29.692-43.861,53.773-54.239l-11.7-27.907C122.378,87.375,96.915,113.059,83.721,144.601z"/>
			</g>
			<g>
				
					<linearGradient id="SVGID_00000061465272671756001990000009550528361441320324_" gradientUnits="userSpaceOnUse" x1="299.1227" y1="195.076" x2="339.1168" y2="195.076">
					<stop  offset="0" style="stop-color:#14B063"/>
					<stop  offset="1" style="stop-color:#007D3E"/>
				</linearGradient>
				<path style="fill:url(#SVGID_00000061465272671756001990000009550528361441320324_);" d="M328.782,144.065l-29.659,12.434
					c5.049,12.029,7.842,25.24,7.842,39.104c0,13.558-2.675,26.489-7.515,38.305l29.763,12.18
					c6.379-15.572,9.905-32.615,9.905-50.484C339.117,177.331,335.436,159.92,328.782,144.065z"/>
				<path style="fill:#FFFFFF;" d="M329.731,247.326l-31.522-12.899l0.36-0.88c4.94-12.059,7.445-24.825,7.445-37.944
					c0-13.423-2.613-26.456-7.768-38.737l-0.368-0.876l31.411-13.168l0.367,0.876c6.908,16.456,10.41,33.92,10.41,51.905
					c0,17.579-3.357,34.685-9.976,50.844L329.731,247.326z M300.685,233.386l28.005,11.461c6.29-15.67,9.478-32.232,9.478-49.244
					c0-17.412-3.33-34.328-9.897-50.293l-27.908,11.699c5.012,12.256,7.553,25.236,7.553,38.594
					C307.915,208.651,305.483,221.358,300.685,233.386z"/>
			</g>
			<g>
				
					<linearGradient id="SVGID_00000062189255740796946770000011727980356827405227_" gradientUnits="userSpaceOnUse" x1="154.3079" y1="82.3285" x2="256.3297" y2="82.3285">
					<stop  offset="0" style="stop-color:#FBF161"/>
					<stop  offset="1" style="stop-color:#FCB600"/>
				</linearGradient>
				<path style="fill:url(#SVGID_00000062189255740796946770000011727980356827405227_);" d="M205.846,94.484
					c13.558,0,26.49,2.675,38.305,7.515l12.18-29.763c-15.572-6.379-32.615-9.905-50.484-9.905
					c-18.272,0-35.683,3.681-51.538,10.335l12.434,29.659C178.771,97.276,191.982,94.484,205.846,94.484z"/>
				<path style="fill:#FFFFFF;" d="M166.233,103.57l-13.168-31.411l0.876-0.367c16.456-6.907,33.919-10.409,51.905-10.409
					c17.58,0,34.686,3.357,50.845,9.975l0.878,0.36l-12.898,31.522l-0.88-0.36c-12.06-4.94-24.826-7.445-37.945-7.445
					c-13.423,0-26.456,2.613-38.737,7.768L166.233,103.57z M155.553,73.178l11.699,27.908c12.256-5.012,25.236-7.553,38.594-7.553
					c13.049,0,25.755,2.432,37.784,7.231l11.46-28.006c-15.669-6.289-32.23-9.477-49.244-9.477
					C188.433,63.282,171.517,66.612,155.553,73.178z"/>
			</g>
		</g>
		<g>
			<g>
				
					<linearGradient id="SVGID_00000047744959454316288610000000171411491030349184_" gradientUnits="userSpaceOnUse" x1="1002.8508" y1="-481.3956" x2="1034.6637" y2="-481.3956" gradientTransform="matrix(-0.0601 0.9982 -0.9982 -0.0601 -38.3091 -827.0445)">
					<stop  offset="0" style="stop-color:#14B063"/>
					<stop  offset="1" style="stop-color:#007D3E"/>
				</linearGradient>
				<path style="fill:url(#SVGID_00000047744959454316288610000000171411491030349184_);" d="M396.871,219.766
					c0.527-8.755-6.169-16.307-14.921-16.833c-8.758-0.528-16.307,6.166-16.834,14.921c-0.528,8.756,6.165,16.308,14.923,16.835
					C388.79,235.215,396.344,228.522,396.871,219.766z"/>
				<g>
					<path style="fill:#FFFFFF;" d="M379.894,208.114c-5.842-0.352-10.881,4.115-11.232,9.956
						c-0.352,5.842,4.114,10.88,9.957,11.232L379.894,208.114z"/>
					<g>
						<path style="fill:#FFFFFF;" d="M384.114,214.706l0.035-0.564c1.103,0.066,2.056-0.779,2.122-1.882
							c0.066-1.104-0.778-2.056-1.882-2.123l0.033-0.563c1.415,0.085,2.498,1.305,2.412,2.721
							C386.75,213.709,385.53,214.79,384.114,214.706z"/>
						<path style="fill:#FFFFFF;" d="M383.292,228.395l0.033-0.563c1.104,0.066,2.056-0.778,2.123-1.881
							c0.066-1.105-0.779-2.057-1.883-2.124l0.034-0.563c1.414,0.085,2.497,1.306,2.412,2.72
							C385.925,227.399,384.705,228.48,383.292,228.395z"/>
					</g>
				</g>
				<g>
					<path style="fill:#FFFFFF;" d="M391.395,214.954c0,0-0.066-0.43-0.185-0.99c-0.052-0.279-0.147-0.594-0.216-0.919
						c-0.138-0.313-0.162-0.672-0.346-0.978c-0.117-0.33-0.249-0.655-0.432-0.939c-0.085-0.144-0.153-0.296-0.22-0.443
						c-0.056-0.155-0.172-0.256-0.24-0.382c-0.319-0.468-0.5-0.89-0.5-0.89s0.401,0.109,0.961,0.434
						c0.132,0.089,0.311,0.15,0.425,0.295c0.127,0.13,0.268,0.268,0.396,0.426c0.121,0.16,0.291,0.302,0.384,0.496
						c0.092,0.195,0.184,0.395,0.278,0.592c0.083,0.204,0.162,0.407,0.188,0.623c0.045,0.21,0.059,0.423,0.087,0.622
						c0.023,0.201-0.016,0.4-0.028,0.584c-0.014,0.184-0.037,0.355-0.092,0.51c-0.083,0.31-0.191,0.557-0.292,0.718
						C391.471,214.876,391.391,214.95,391.395,214.954z"/>
					<path style="fill:#FFFFFF;" d="M390.858,223.891c-0.007,0.003,0.066,0.085,0.136,0.259c0.079,0.173,0.16,0.432,0.204,0.748
						c0.034,0.16,0.038,0.333,0.03,0.517c-0.011,0.182,0.005,0.385-0.042,0.582c-0.052,0.195-0.09,0.404-0.16,0.608
						c-0.053,0.21-0.154,0.404-0.26,0.595c-0.118,0.186-0.233,0.371-0.346,0.555c-0.117,0.18-0.303,0.302-0.443,0.447
						c-0.146,0.141-0.301,0.261-0.444,0.375c-0.13,0.131-0.317,0.172-0.457,0.242c-0.595,0.257-1.006,0.316-1.006,0.316
						s0.231-0.397,0.603-0.822c0.084-0.117,0.212-0.205,0.285-0.351c0.085-0.137,0.17-0.282,0.272-0.414
						c0.214-0.26,0.386-0.566,0.54-0.88c0.221-0.281,0.287-0.636,0.461-0.929c0.107-0.315,0.241-0.615,0.325-0.888
						C390.739,224.311,390.858,223.89,390.858,223.891z"/>
				</g>
			</g>
		</g>
		<g>
			<g>
				
					<linearGradient id="SVGID_00000087398299249827035290000011632107409039323569_" gradientUnits="userSpaceOnUse" x1="-49.78" y1="-456.0905" x2="-17.964" y2="-456.0905" gradientTransform="matrix(-0.7685 -0.6398 -0.6398 0.7685 26.7927 406.45)">
					<stop  offset="0" style="stop-color:#90D849"/>
					<stop  offset="1" style="stop-color:#4A9E00"/>
				</linearGradient>
				<path style="fill:url(#SVGID_00000087398299249827035290000011632107409039323569_);" d="M354.808,65.391
					c6.74,5.613,7.658,15.663,2.048,22.403c-5.614,6.741-15.663,7.66-22.405,2.046c-6.74-5.612-7.659-15.661-2.045-22.403
					C338.016,60.699,348.068,59.779,354.808,65.391z"/>
				<g>
					<path style="fill:#FFFFFF;" d="M336.093,87.868c4.737,3.944,11.798,3.298,15.741-1.438l-0.866-0.723
						c-3.547,4.258-9.895,4.84-14.152,1.294c-4.257-3.546-4.839-9.895-1.292-14.153l-0.867-0.722
						C330.712,76.863,331.356,83.924,336.093,87.868z"/>
					<g>
						<path style="fill:#FFFFFF;" d="M350.301,81.52c-0.969-0.809-1.102-2.252-0.294-3.223c0.808-0.971,2.253-1.103,3.223-0.294
							c0.972,0.809,1.103,2.252,0.295,3.222C352.716,82.196,351.272,82.328,350.301,81.52z"/>
						<path style="fill:#FFFFFF;" d="M339.762,72.744c-0.971-0.807-1.103-2.251-0.294-3.223c0.808-0.971,2.252-1.102,3.223-0.293
							c0.97,0.809,1.103,2.252,0.293,3.223C342.176,73.421,340.735,73.553,339.762,72.744z"/>
					</g>
				</g>
				<g>
					<path style="fill:#FFFFFF;" d="M354.567,72.679c-0.002-0.001,0.266,0.343,0.591,0.812c0.171,0.23,0.335,0.516,0.524,0.789
						c0.133,0.313,0.38,0.577,0.476,0.92c0.162,0.312,0.306,0.63,0.388,0.959c0.047,0.161,0.113,0.313,0.174,0.464
						c0.073,0.147,0.067,0.3,0.113,0.437c0.123,0.551,0.306,0.974,0.306,0.974s0.196-0.367,0.341-0.998
						c0.026-0.156,0.105-0.331,0.078-0.513c-0.009-0.182-0.012-0.378-0.039-0.581c-0.035-0.198-0.023-0.419-0.1-0.62
						c-0.079-0.2-0.16-0.403-0.242-0.607c-0.09-0.199-0.185-0.396-0.324-0.563c-0.123-0.176-0.267-0.333-0.395-0.489
						c-0.13-0.155-0.303-0.264-0.445-0.38c-0.141-0.116-0.284-0.217-0.434-0.282c-0.281-0.153-0.536-0.243-0.724-0.281
						C354.674,72.675,354.565,72.684,354.567,72.679z"/>
					<path style="fill:#FFFFFF;" d="M347.685,66.95c-0.005,0.002-0.018-0.108-0.097-0.277c-0.07-0.176-0.203-0.412-0.404-0.661
						c-0.092-0.136-0.216-0.257-0.356-0.376c-0.141-0.118-0.278-0.268-0.453-0.367c-0.178-0.098-0.358-0.211-0.555-0.3
						c-0.187-0.108-0.399-0.164-0.612-0.219c-0.214-0.042-0.429-0.084-0.641-0.127c-0.211-0.039-0.425,0.013-0.627,0.016
						c-0.203,0.01-0.397,0.04-0.579,0.067c-0.184,0.004-0.34,0.114-0.49,0.167c-0.594,0.258-0.918,0.518-0.918,0.518
						s0.447,0.103,1.015,0.123c0.141,0.021,0.291-0.012,0.448,0.034c0.159,0.032,0.321,0.07,0.488,0.085
						c0.337,0.022,0.677,0.107,1.013,0.209c0.355,0.033,0.659,0.227,0.992,0.301c0.302,0.137,0.613,0.248,0.87,0.372
						C347.298,66.749,347.685,66.95,347.685,66.95z"/>
				</g>
			</g>
		</g>
		<g>
			<g>
				
					<linearGradient id="SVGID_00000045585466506113676850000001096960501357909945_" gradientUnits="userSpaceOnUse" x1="84.829" y1="-140.1414" x2="116.6415" y2="-140.1414" gradientTransform="matrix(0.9999 0.0185 -0.0185 0.9999 102.2608 161.5485)">
					<stop  offset="0" style="stop-color:#FBF161"/>
					<stop  offset="1" style="stop-color:#FCB600"/>
				</linearGradient>
				<path style="fill:url(#SVGID_00000045585466506113676850000001096960501357909945_);" d="M205.871,7.381
					c-8.767-0.163-16.034,6.841-16.197,15.608c-0.163,8.771,6.839,16.037,15.607,16.2c8.771,0.163,16.039-6.839,16.202-15.61
					C221.646,14.812,214.643,7.543,205.871,7.381z"/>
				<g>
					
						<rect x="204.889" y="23.03" transform="matrix(0.0185 -0.9998 0.9998 0.0185 171.6097 234.9008)" style="fill:#FFFFFF;" width="1.129" height="14.019"/>
					<g>
						<path style="fill:#FFFFFF;" d="M198.734,22.528c1.263,0.024,2.308-0.982,2.332-2.245c0.023-1.263-0.982-2.308-2.245-2.331
							c-1.265-0.023-2.309,0.982-2.332,2.245C196.466,21.46,197.47,22.504,198.734,22.528z"/>
						<path style="fill:#FFFFFF;" d="M212.447,22.783c1.264,0.023,2.306-0.983,2.331-2.245c0.023-1.264-0.982-2.307-2.246-2.33
							c-1.264-0.024-2.307,0.982-2.33,2.246C210.178,21.715,211.183,22.759,212.447,22.783z"/>
					</g>
				</g>
				<g>
					<path style="fill:#FFFFFF;" d="M201.292,13.051c0,0-0.427,0.085-0.981,0.227c-0.279,0.063-0.588,0.171-0.91,0.255
						c-0.307,0.15-0.664,0.189-0.962,0.384c-0.326,0.131-0.643,0.277-0.92,0.471c-0.142,0.091-0.292,0.165-0.435,0.239
						c-0.15,0.062-0.248,0.182-0.371,0.256c-0.455,0.338-0.869,0.537-0.869,0.537s0.093-0.407,0.395-0.979
						c0.082-0.135,0.137-0.319,0.277-0.437c0.125-0.133,0.257-0.278,0.408-0.414c0.156-0.128,0.291-0.305,0.481-0.405
						c0.191-0.1,0.385-0.2,0.581-0.301c0.198-0.092,0.4-0.178,0.613-0.214c0.208-0.055,0.421-0.076,0.619-0.112
						c0.199-0.033,0.401-0.001,0.583,0.003c0.185,0.007,0.357,0.023,0.514,0.072c0.311,0.067,0.563,0.168,0.73,0.261
						C201.21,12.978,201.288,13.056,201.292,13.051z"/>
					<path style="fill:#FFFFFF;" d="M210.243,13.217c0.003,0.005,0.083-0.07,0.252-0.147c0.169-0.088,0.424-0.177,0.741-0.235
						c0.159-0.042,0.33-0.051,0.514-0.051c0.184,0.002,0.385-0.022,0.584,0.017c0.197,0.043,0.408,0.074,0.614,0.136
						c0.213,0.044,0.409,0.137,0.605,0.236c0.189,0.11,0.381,0.216,0.569,0.323c0.184,0.107,0.315,0.289,0.464,0.423
						c0.147,0.141,0.274,0.291,0.393,0.428c0.137,0.124,0.184,0.309,0.261,0.447c0.28,0.583,0.356,0.992,0.356,0.992
						s-0.405-0.214-0.847-0.569c-0.121-0.077-0.212-0.201-0.361-0.269c-0.141-0.08-0.289-0.158-0.424-0.253
						c-0.27-0.204-0.582-0.362-0.903-0.505c-0.29-0.208-0.646-0.259-0.948-0.42c-0.318-0.095-0.625-0.215-0.899-0.289
						C210.667,13.318,210.243,13.217,210.243,13.217z"/>
				</g>
			</g>
		</g>
		<g>
			<g>
				
					<linearGradient id="SVGID_00000023995203295509865590000001449035279393627549_" gradientUnits="userSpaceOnUse" x1="608.095" y1="-179.5771" x2="639.9125" y2="-179.5771" gradientTransform="matrix(0.6883 -0.7254 0.7254 0.6883 -229.4687 658.3044)">
					<stop  offset="0" style="stop-color:#FFBB00"/>
					<stop  offset="0.9971" style="stop-color:#DD6400"/>
				</linearGradient>
				<path style="fill:url(#SVGID_00000023995203295509865590000001449035279393627549_);" d="M58.23,71.1
					c-6.039,6.365-5.772,16.453,0.587,22.489c6.365,6.038,16.452,5.773,22.49-0.591c6.038-6.363,5.773-16.45-0.591-22.49
					C74.355,64.472,64.265,64.738,58.23,71.1z"/>
				<g>
					<path style="fill:#FFFFFF;" d="M72.861,91.846l-1.128,0.033c-0.063-2.179,0.727-4.254,2.226-5.842
						c0.006-0.006,0.011-0.012,0.016-0.017c1.496-1.578,3.515-2.482,5.686-2.546l0.033,1.129c-1.871,0.056-3.609,0.834-4.9,2.194
						c-0.004,0.005-0.008,0.008-0.013,0.015C73.487,88.181,72.806,89.969,72.861,91.846z"/>
					<g>
						<path style="fill:#FFFFFF;" d="M64.591,86.59c0.87-0.916,0.832-2.365-0.085-3.235c-0.917-0.869-2.366-0.832-3.236,0.086
							c-0.868,0.916-0.831,2.366,0.086,3.236C62.273,87.545,63.722,87.507,64.591,86.59z"/>
						<path style="fill:#FFFFFF;" d="M74.03,76.641c0.871-0.916,0.832-2.366-0.084-3.235c-0.916-0.869-2.365-0.831-3.235,0.085
							c-0.868,0.917-0.831,2.366,0.085,3.237C71.712,77.596,73.161,77.558,74.03,76.641z"/>
					</g>
				</g>
				<g>
					<path style="fill:#FFFFFF;" d="M59.322,78.309c0,0-0.226,0.373-0.495,0.877c-0.14,0.247-0.269,0.549-0.426,0.844
						c-0.094,0.327-0.307,0.616-0.364,0.969c-0.124,0.33-0.229,0.661-0.274,0.997c-0.026,0.165-0.073,0.325-0.116,0.48
						c-0.056,0.156-0.033,0.307-0.062,0.449c-0.057,0.563-0.188,1.002-0.188,1.002s-0.24-0.34-0.458-0.95
						c-0.043-0.152-0.141-0.316-0.135-0.499c-0.013-0.183-0.031-0.379-0.029-0.581c0.01-0.202-0.028-0.42,0.025-0.629
						c0.056-0.207,0.112-0.419,0.169-0.63c0.068-0.21,0.139-0.415,0.256-0.597c0.101-0.19,0.229-0.362,0.334-0.532
						c0.113-0.169,0.272-0.297,0.398-0.43c0.128-0.13,0.257-0.247,0.398-0.331c0.261-0.184,0.504-0.301,0.685-0.36
						C59.213,78.32,59.324,78.314,59.322,78.309z"/>
					<path style="fill:#FFFFFF;" d="M65.485,71.813c0.004,0.002,0.005-0.109,0.063-0.287c0.049-0.184,0.154-0.431,0.325-0.703
						c0.075-0.145,0.184-0.279,0.309-0.414c0.126-0.134,0.244-0.299,0.406-0.42c0.166-0.117,0.33-0.251,0.515-0.362
						c0.175-0.127,0.378-0.21,0.582-0.287c0.21-0.068,0.417-0.135,0.622-0.203c0.206-0.064,0.426-0.037,0.627-0.057
						c0.202-0.013,0.399-0.006,0.581-0.001c0.183-0.017,0.352,0.073,0.506,0.109c0.62,0.186,0.974,0.406,0.974,0.406
						s-0.433,0.156-0.992,0.242c-0.139,0.036-0.292,0.02-0.444,0.084c-0.153,0.052-0.31,0.108-0.474,0.143
						c-0.331,0.062-0.659,0.185-0.981,0.325c-0.349,0.076-0.628,0.304-0.95,0.416c-0.284,0.172-0.58,0.317-0.82,0.47
						C65.844,71.568,65.485,71.813,65.485,71.813z"/>
				</g>
			</g>
		</g>
		<g>
			<g>
				
					<linearGradient id="SVGID_00000078002575082096362390000008181624861125427115_" gradientUnits="userSpaceOnUse" x1="1717.6755" y1="521.8077" x2="1749.491" y2="521.8077" gradientTransform="matrix(0.0097 -0.9999 0.9999 0.0097 -512.4882 1937.761)">
					<stop  offset="0" style="stop-color:#D32A16"/>
					<stop  offset="1" style="stop-color:#830E00"/>
				</linearGradient>
				<path style="fill:url(#SVGID_00000078002575082096362390000008181624861125427115_);" d="M10.178,209.26
					c-0.086,8.772,6.981,15.974,15.75,16.059c8.771,0.085,15.977-6.979,16.061-15.753c0.086-8.771-6.98-15.975-15.753-16.06
					C17.467,193.422,10.261,200.487,10.178,209.26z"/>
				<g>
					<g>
						<path style="fill:#FFFFFF;" d="M35.742,201.165l-0.011,1.129c-3.881-0.037-7.071,3.089-7.108,6.97
							c-0.038,3.881,3.089,7.071,6.972,7.109l-0.013,1.128c-4.502-0.043-8.132-3.743-8.089-8.248
							C27.537,204.75,31.239,201.121,35.742,201.165z"/>
						<g>
							<path style="fill:#FFFFFF;" d="M25.389,216.091c0.013-1.262-1.003-2.298-2.267-2.31c-1.263-0.012-2.298,1.003-2.31,2.266
								c-0.013,1.263,1.002,2.297,2.266,2.31C24.342,218.37,25.376,217.354,25.389,216.091z"/>
							<path style="fill:#FFFFFF;" d="M25.521,202.378c0.013-1.263-1.003-2.298-2.266-2.31c-1.263-0.012-2.299,1.003-2.31,2.266
								c-0.013,1.262,1.002,2.297,2.266,2.31C24.474,204.656,25.509,203.641,25.521,202.378z"/>
						</g>
					</g>
					<g>
						<path style="fill:#FFFFFF;" d="M15.947,205.226c0,0,0.154-0.407,0.328-0.951c0.093-0.268,0.167-0.589,0.27-0.907
							c0.034-0.339,0.194-0.663,0.185-1.019c0.063-0.345,0.107-0.692,0.091-1.029c-0.005-0.167,0.016-0.333,0.03-0.494
							c0.026-0.161-0.024-0.308-0.021-0.452c-0.043-0.564,0.007-1.02,0.007-1.02s0.296,0.294,0.621,0.854
							c0.07,0.142,0.195,0.285,0.223,0.467c0.046,0.176,0.098,0.365,0.131,0.565c0.027,0.2,0.104,0.41,0.088,0.623
							c-0.017,0.215-0.034,0.433-0.053,0.651c-0.028,0.218-0.061,0.434-0.145,0.634c-0.065,0.204-0.158,0.395-0.234,0.583
							c-0.079,0.185-0.213,0.339-0.316,0.492c-0.101,0.152-0.207,0.289-0.332,0.398c-0.223,0.227-0.442,0.387-0.61,0.478
							C16.051,205.196,15.943,205.22,15.947,205.226z"/>
						<path style="fill:#FFFFFF;" d="M15.865,213.404c-0.003,0.005,0.105,0.032,0.261,0.131c0.168,0.093,0.383,0.259,0.601,0.49
							c0.122,0.109,0.225,0.249,0.325,0.403c0.099,0.156,0.228,0.311,0.306,0.497c0.071,0.189,0.161,0.382,0.222,0.588
							c0.081,0.202,0.11,0.419,0.132,0.637c0.015,0.219,0.03,0.437,0.042,0.652c0.01,0.213-0.071,0.42-0.1,0.621
							c-0.039,0.199-0.093,0.388-0.145,0.564c-0.03,0.181-0.158,0.322-0.23,0.462c-0.333,0.553-0.636,0.841-0.636,0.841
							s-0.043-0.456,0.013-1.02c0-0.143,0.052-0.288,0.028-0.45c-0.011-0.162-0.025-0.329-0.02-0.495
							c0.023-0.337-0.014-0.684-0.071-1.032c0.016-0.355-0.137-0.682-0.166-1.021c-0.097-0.319-0.163-0.642-0.25-0.912
							C16.015,213.812,15.865,213.404,15.865,213.404z"/>
					</g>
				</g>
				<g>
					<g>
						
							<linearGradient id="SVGID_00000026868455608540408350000015615283142323531688_" gradientUnits="userSpaceOnUse" x1="1607.5179" y1="862.3431" x2="1609.7643" y2="862.3431" gradientTransform="matrix(-0.2341 -0.9722 0.9722 -0.2341 -434.5523 1964.9406)">
							<stop  offset="0" style="stop-color:#23C3FF"/>
							<stop  offset="1" style="stop-color:#0091FF"/>
						</linearGradient>
						<path style="fill:url(#SVGID_00000026868455608540408350000015615283142323531688_);" d="M29.147,198.686
							c-0.102-0.416-0.579-1.017-1.637-0.763c-1.053,0.253-2.188,1.683-2.188,1.683s1.658,0.755,2.715,0.5
							C29.094,199.854,29.246,199.1,29.147,198.686z"/>
						
							<linearGradient id="SVGID_00000173860736819050972100000016170712138594149520_" gradientUnits="userSpaceOnUse" x1="1607.5187" y1="866.9031" x2="1609.7655" y2="866.9031" gradientTransform="matrix(-0.2341 -0.9722 0.9722 -0.2341 -434.5523 1964.9406)">
							<stop  offset="0" style="stop-color:#23C3FF"/>
							<stop  offset="1" style="stop-color:#0091FF"/>
						</linearGradient>
						<path style="fill:url(#SVGID_00000173860736819050972100000016170712138594149520_);" d="M33.581,197.618
							c-0.099-0.413-0.58-1.016-1.635-0.764c-1.054,0.255-2.19,1.684-2.19,1.684s1.662,0.757,2.717,0.5
							C33.528,198.786,33.681,198.031,33.581,197.618z"/>
					</g>
					<g>
						
							<linearGradient id="SVGID_00000047763485413446010390000007299404107166104470_" gradientUnits="userSpaceOnUse" x1="-1197.9044" y1="158.3025" x2="-1195.6583" y2="158.3025" gradientTransform="matrix(-0.2529 0.9675 0.9675 0.2529 -428.7891 1337.5515)">
							<stop  offset="0" style="stop-color:#23C3FF"/>
							<stop  offset="1" style="stop-color:#0091FF"/>
						</linearGradient>
						<path style="fill:url(#SVGID_00000047763485413446010390000007299404107166104470_);" d="M28.937,220.197
							c-0.106,0.412-0.596,1.005-1.648,0.731c-1.052-0.274-2.158-1.724-2.158-1.724s1.673-0.725,2.726-0.449
							C28.907,219.028,29.046,219.784,28.937,220.197z"/>
						
							<linearGradient id="SVGID_00000158003674184499359290000005508148434383544207_" gradientUnits="userSpaceOnUse" x1="-1197.9036" y1="162.8635" x2="-1195.6569" y2="162.8635" gradientTransform="matrix(-0.2529 0.9675 0.9675 0.2529 -428.7891 1337.5515)">
							<stop  offset="0" style="stop-color:#23C3FF"/>
							<stop  offset="1" style="stop-color:#0091FF"/>
						</linearGradient>
						<path style="fill:url(#SVGID_00000158003674184499359290000005508148434383544207_);" d="M33.352,221.35
							c-0.108,0.412-0.6,1.005-1.65,0.732c-1.05-0.275-2.158-1.727-2.158-1.727s1.675-0.723,2.727-0.447
							C33.32,220.182,33.459,220.94,33.352,221.35z"/>
					</g>
				</g>
			</g>
		</g>
		<g>
			<g>
				<polygon style="opacity:0.3;fill:#4B4B4B;" points="221.572,156.429 209.243,133.652 208.42,132.469 207.545,133.622 
					194.219,156.096 193.381,157.198 195.051,157.217 203.557,157.318 204.166,246.822 204.169,247.556 205.131,247.568 
					207.828,247.601 208.792,247.611 208.81,246.876 212.195,157.419 220.707,157.521 222.345,157.539 				"/>
				<g>
					
						<linearGradient id="SVGID_00000099652993719111504310000006375864991971848363_" gradientUnits="userSpaceOnUse" x1="-339.1299" y1="1212.7614" x2="-314.7672" y2="1212.7614" gradientTransform="matrix(0.9999 0.0118 -0.0118 0.9999 546.5822 -1018.3867)">
						<stop  offset="0" style="stop-color:#666666"/>
						<stop  offset="0.8478" style="stop-color:#454545"/>
					</linearGradient>
					<polygon style="fill:url(#SVGID_00000099652993719111504310000006375864991971848363_);" points="218.666,156.752 
						206.338,133.976 193.01,156.449 202.48,156.56 204.052,246.811 206.75,246.842 209.194,156.64 					"/>
					<path style="fill:#FFFFFF;" d="M206.338,133.976l12.328,22.776l-9.472-0.111l-2.444,90.202l-2.699-0.031l-1.572-90.251
						l-9.47-0.111L206.338,133.976 M206.368,132.467l-0.67,1.129l-13.33,22.472l-0.657,1.109l1.288,0.014l8.738,0.104l1.569,89.518
						l0.002,0.733l0.733,0.008l2.699,0.031l0.734,0.009l0.019-0.732l2.423-89.47l8.74,0.102l1.266,0.015l-0.603-1.113
						l-12.328-22.775L206.368,132.467L206.368,132.467z"/>
				</g>
			</g>
			<path style="opacity:0.3;fill:#4B4B4B;" d="M207.03,231.035c-10.536,0-19.1,8.568-19.1,19.102h38.198
				C226.128,239.603,217.564,231.035,207.03,231.035z"/>
			<g>
				<path style="fill:#FFFFFF;" d="M177.631,249.79c0.188-14.883,12.279-26.904,27.213-26.904c14.932,0,27.022,12.021,27.209,26.904
					h4.574c-0.194-17.378-14.361-31.47-31.783-31.47c-17.425,0-31.588,14.091-31.777,31.47H177.631z"/>
				<path style="fill:#5B5B5B;" d="M204.844,218.32c17.422,0,31.589,14.091,31.783,31.47h-4.574
					c-0.187-14.883-12.277-26.904-27.209-26.904c-14.934,0-27.025,12.021-27.213,26.904h-4.564
					C173.256,232.412,187.42,218.32,204.844,218.32 M204.844,217.845c-17.593,0-32.061,14.328-32.252,31.94
					c-0.001,0.127,0.048,0.249,0.137,0.339c0.089,0.09,0.211,0.141,0.338,0.141h4.564c0.26,0,0.472-0.209,0.475-0.469
					c0.185-14.577,12.179-26.435,26.738-26.435c14.558,0,26.551,11.859,26.734,26.435c0.003,0.26,0.215,0.469,0.475,0.469h4.574
					c0.127,0,0.249-0.051,0.338-0.141c0.089-0.09,0.139-0.212,0.137-0.339C236.905,232.173,222.435,217.845,204.844,217.845
					L204.844,217.845z"/>
				<path style="fill:#5B5B5B;" d="M233.808,250.137c0-16-12.969-28.975-28.964-28.975c-16.005,0-28.969,12.976-28.969,28.975
					H233.808z"/>
			</g>
		</g>
		<g>
			
				<linearGradient id="SVGID_00000092431921778852538020000012299364511278262206_" gradientUnits="userSpaceOnUse" x1="269.5283" y1="197.9426" x2="295.5441" y2="197.9426">
				<stop  offset="0" style="stop-color:#14B063"/>
				<stop  offset="1" style="stop-color:#007D3E"/>
			</linearGradient>
			<path style="fill:url(#SVGID_00000092431921778852538020000012299364511278262206_);" d="M282.535,184.935
				c-7.173,0-13.007,5.835-13.007,13.008c0,7.173,5.834,13.008,13.007,13.008s13.009-5.836,13.009-13.008
				C295.544,190.77,289.708,184.935,282.535,184.935z"/>
			<path style="fill:#FFFFFF;" d="M280.226,190.757h4.2V205.5h-2.788v-12.107h-3.034L280.226,190.757z"/>
		</g>
		<g>
			
				<linearGradient id="SVGID_00000113344434643827363450000011798726960156037529_" gradientUnits="userSpaceOnUse" x1="247.7932" y1="138.6369" x2="273.8089" y2="138.6369">
				<stop  offset="0" style="stop-color:#90D849"/>
				<stop  offset="1" style="stop-color:#4A9E00"/>
			</linearGradient>
			<path style="fill:url(#SVGID_00000113344434643827363450000011798726960156037529_);" d="M260.801,125.629
				c-7.173,0-13.008,5.835-13.008,13.008c0,7.173,5.836,13.008,13.008,13.008c7.173,0,13.008-5.836,13.008-13.008
				C273.809,131.464,267.974,125.629,260.801,125.629z"/>
			<path style="fill:#FFFFFF;" d="M258.832,136.202h-2.736c0.074-1.589,0.572-2.842,1.499-3.752c0.925-0.912,2.113-1.369,3.56-1.369
				c0.896,0,1.686,0.189,2.371,0.567c0.687,0.378,1.233,0.923,1.643,1.634c0.411,0.712,0.617,1.433,0.617,2.169
				c0,0.874-0.25,1.818-0.749,2.825c-0.497,1.01-1.409,2.202-2.731,3.578l-1.654,1.744h5.254v2.596h-10.211v-1.344l4.559-4.65
				c1.102-1.116,1.835-2.013,2.199-2.69c0.365-0.678,0.547-1.293,0.547-1.84c0-0.568-0.189-1.037-0.567-1.408
				c-0.376-0.37-0.863-0.556-1.457-0.556c-0.601,0-1.102,0.222-1.506,0.673C259.072,134.824,258.86,135.434,258.832,136.202z"/>
		</g>
		<g>
			
				<linearGradient id="SVGID_00000076595296405590580000000004093555759721885373_" gradientUnits="userSpaceOnUse" x1="192.838" y1="114.3694" x2="218.8537" y2="114.3694">
				<stop  offset="0" style="stop-color:#FBF161"/>
				<stop  offset="1" style="stop-color:#FCB600"/>
			</linearGradient>
			<path style="fill:url(#SVGID_00000076595296405590580000000004093555759721885373_);" d="M205.846,101.362
				c-7.172,0-13.008,5.835-13.008,13.008c0,7.173,5.836,13.008,13.008,13.008c7.173,0,13.008-5.836,13.008-13.008
				C218.854,107.196,213.018,101.362,205.846,101.362z"/>
			<path style="fill:#FFFFFF;" d="M204.046,110.822h-2.696c0.139-1.088,0.532-1.965,1.172-2.626
				c0.895-0.923,2.022-1.383,3.379-1.383c1.207,0,2.222,0.383,3.041,1.152c0.818,0.769,1.228,1.681,1.228,2.736
				c0,0.655-0.18,1.252-0.537,1.793c-0.357,0.542-0.876,0.979-1.559,1.313c0.895,0.267,1.596,0.734,2.101,1.397
				c0.503,0.666,0.755,1.449,0.755,2.35c0,1.324-0.488,2.445-1.462,3.363c-0.976,0.917-2.218,1.376-3.729,1.376
				c-1.429,0-2.595-0.432-3.497-1.298c-0.903-0.864-1.399-2.041-1.485-3.532h2.776c0.12,0.762,0.385,1.328,0.796,1.698
				c0.411,0.371,0.93,0.556,1.558,0.556c0.656,0,1.198-0.21,1.631-0.631c0.429-0.421,0.644-0.935,0.644-1.543
				c0-0.667-0.29-1.232-0.87-1.693c-0.582-0.462-1.421-0.698-2.515-0.711v-2.406c0.673-0.055,1.176-0.159,1.508-0.316
				c0.33-0.155,0.588-0.373,0.772-0.645c0.183-0.274,0.275-0.566,0.275-0.872c0-0.401-0.14-0.734-0.422-0.999
				c-0.279-0.262-0.649-0.396-1.101-0.396c-0.402,0-0.765,0.123-1.093,0.367C204.389,110.119,204.167,110.435,204.046,110.822z"/>
		</g>
		<g>
			
				<linearGradient id="SVGID_00000089569186086526193930000015386113823056523426_" gradientUnits="userSpaceOnUse" x1="136.3058" y1="138.6369" x2="162.3189" y2="138.6369">
				<stop  offset="0" style="stop-color:#FFBB00"/>
				<stop  offset="0.9971" style="stop-color:#DD6400"/>
			</linearGradient>
			<path style="fill:url(#SVGID_00000089569186086526193930000015386113823056523426_);" d="M149.311,125.629
				c-7.169,0-13.005,5.835-13.005,13.008c0,7.173,5.835,13.008,13.005,13.008c7.173,0,13.008-5.836,13.008-13.008
				C162.319,131.464,156.484,125.629,149.311,125.629z"/>
			<path style="fill:#FFFFFF;" d="M150.448,131.081h2.796v9.49h1.314v2.595h-1.314v3.028h-2.745v-3.028h-6.435v-2.595
				L150.448,131.081z M150.498,140.571v-4.941l-3.367,4.941H150.498z"/>
		</g>
		<g>
			
				<linearGradient id="SVGID_00000093869903991725050470000010398603471819084448_" gradientUnits="userSpaceOnUse" x1="117.2147" y1="197.9431" x2="143.2279" y2="197.9431">
				<stop  offset="0" style="stop-color:#D32A16"/>
				<stop  offset="1" style="stop-color:#830E00"/>
			</linearGradient>
			<path style="fill:url(#SVGID_00000093869903991725050470000010398603471819084448_);" d="M130.221,184.936
				c-7.171,0-13.006,5.835-13.006,13.007c0,7.174,5.835,13.008,13.006,13.008c7.173,0,13.007-5.835,13.007-13.008
				C143.228,190.771,137.393,184.936,130.221,184.936z"/>
			<path style="fill:#FFFFFF;" d="M128.142,190.758h6.906v2.596h-4.811l-0.601,2.675c0.167-0.048,0.332-0.083,0.493-0.106
				c0.158-0.023,0.313-0.035,0.46-0.035c1.336,0,2.446,0.457,3.333,1.368c0.884,0.912,1.326,2.08,1.326,3.503
				c0,1.436-0.49,2.649-1.469,3.632c-0.978,0.985-2.17,1.479-3.572,1.479c-1.255,0-2.334-0.357-3.236-1.071
				c-0.903-0.715-1.493-1.694-1.776-2.938h2.947c0.227,0.462,0.527,0.811,0.897,1.047c0.372,0.239,0.78,0.356,1.229,0.356
				c0.622,0,1.148-0.224,1.582-0.671c0.435-0.447,0.651-1.022,0.651-1.723c0-0.682-0.202-1.241-0.606-1.679
				c-0.403-0.439-0.894-0.658-1.468-0.658c-0.307,0-0.61,0.078-0.907,0.232c-0.297,0.154-0.589,0.384-0.876,0.69l-2.283-0.511
				L128.142,190.758z"/>
		</g>
	</g>
	<g>
		<g style="opacity:0.3;">
			<path style="fill:#565656;" d="M58.742,258.353h10.395v3.308h-6.485v9.193h5.752v3.308h-5.752v9.908h6.485v3.308H58.742V258.353z
				"/>
			<path style="fill:#565656;" d="M82.07,258.353h3.347l2.556,11.843c0.314,1.479,0.599,2.961,0.856,4.446
				c0.256,1.485,0.491,3.043,0.705,4.672c0.025-0.213,0.043-0.379,0.056-0.498c0.013-0.119,0.025-0.204,0.038-0.254l0.545-3.327
				l0.489-3.158l0.432-2.087l2.275-11.636h3.384l2.669,29.025h-3.74l-0.659-9.851c-0.025-0.5-0.047-0.933-0.065-1.296
				c-0.019-0.364-0.028-0.665-0.028-0.903l-0.17-3.891l-0.093-3.571c0-0.025-0.003-0.079-0.009-0.161
				c-0.006-0.081-0.016-0.191-0.028-0.328l-0.094,0.582c-0.101,0.69-0.191,1.291-0.273,1.805c-0.081,0.514-0.153,0.946-0.216,1.297
				l-0.489,2.65l-0.188,0.996l-2.444,12.67h-2.632l-2.294-10.941c-0.314-1.441-0.592-2.904-0.836-4.389
				c-0.244-1.485-0.468-3.043-0.668-4.672l-1.127,20.002h-3.685L82.07,258.353z"/>
			<path style="fill:#565656;" d="M125.157,273.58c0,5.127-0.569,8.767-1.711,10.923c-1.14,2.155-3.051,3.234-5.733,3.234
				c-2.82,0-4.807-1.16-5.96-3.478c-1.14-2.269-1.711-6.297-1.711-12.088c0-5.164,0.564-8.817,1.692-10.96
				c1.14-2.155,3.071-3.234,5.791-3.234c2.431,0,4.235,0.834,5.413,2.5c0.777,1.116,1.341,2.701,1.693,4.757
				C124.982,267.139,125.157,269.921,125.157,273.58z M121.059,273.994c0-5.026-0.225-8.359-0.676-10.001
				c-0.451-1.655-1.372-2.482-2.764-2.482c-1.391,0-2.318,0.758-2.782,2.274c-0.452,1.529-0.678,4.6-0.678,9.212
				c0,4.248,0.238,7.193,0.714,8.836c0.489,1.553,1.404,2.331,2.745,2.331c1.316,0,2.218-0.727,2.707-2.181
				C120.815,280.542,121.059,277.879,121.059,273.994z"/>
			<path style="fill:#565656;" d="M134.688,258.353h12.727v3.421h-4.38v25.604H139.2v-25.604h-4.512V258.353z"/>
			<path style="fill:#565656;" d="M157.548,258.353h3.91v29.025h-3.91V258.353z"/>
			<path style="fill:#565656;" d="M188.433,273.58c0,5.127-0.569,8.767-1.711,10.923c-1.14,2.155-3.051,3.234-5.733,3.234
				c-2.82,0-4.807-1.16-5.96-3.478c-1.14-2.269-1.711-6.297-1.711-12.088c0-5.164,0.564-8.817,1.692-10.96
				c1.14-2.155,3.071-3.234,5.791-3.234c2.431,0,4.235,0.834,5.413,2.5c0.777,1.116,1.341,2.701,1.693,4.757
				C188.258,267.139,188.433,269.921,188.433,273.58z M184.335,273.994c0-5.026-0.226-8.359-0.676-10.001
				c-0.451-1.655-1.372-2.482-2.764-2.482c-1.391,0-2.318,0.758-2.782,2.274c-0.452,1.529-0.678,4.6-0.678,9.212
				c0,4.248,0.238,7.193,0.714,8.836c0.489,1.553,1.404,2.331,2.745,2.331c1.316,0,2.218-0.727,2.707-2.181
				C184.091,280.542,184.335,277.879,184.335,273.994z"/>
			<path style="fill:#565656;" d="M200.277,258.353h3.647l3.891,11.579c1.128,3.271,2.124,6.762,2.989,10.472
				c-0.314-2.243-0.545-4.274-0.695-6.092c-0.151-1.817-0.226-3.527-0.226-5.132v-10.827h3.929v29.025h-3.667l-4.38-13.066
				c-0.401-1.215-0.779-2.463-1.137-3.74c-0.357-1.279-0.686-2.619-0.987-4.023c-0.025-0.175-0.066-0.388-0.122-0.639
				c-0.057-0.251-0.123-0.539-0.198-0.865c0.038,0.326,0.069,0.605,0.094,0.837c0.025,0.232,0.044,0.429,0.057,0.591l0.207,2.952
				l0.207,3.591c0.013,0.2,0.022,0.445,0.028,0.733c0.006,0.288,0.01,0.614,0.01,0.978l0.207,12.651h-3.854V258.353z"/>
			<path style="fill:#565656;" d="M251.88,258.954v3.817c-1.19-0.853-2.262-1.279-3.215-1.279c-1.027,0-1.867,0.364-2.518,1.09
				c-0.652,0.69-0.977,1.611-0.977,2.764c0,1.015,0.232,1.887,0.695,2.613c0.238,0.389,0.629,0.89,1.175,1.504
				c0.545,0.615,1.25,1.354,2.115,2.218c1.592,1.617,2.676,3.014,3.253,4.192c0.577,1.14,0.865,2.538,0.865,4.192
				c0,2.243-0.633,4.091-1.899,5.545c-1.266,1.417-2.889,2.125-4.869,2.125c-1.667,0-3.089-0.457-4.267-1.373v-3.872
				c1.391,1.015,2.657,1.523,3.797,1.523c1.066,0,1.898-0.355,2.501-1.063c0.601-0.708,0.902-1.67,0.902-2.885
				c0-1.053-0.232-1.999-0.695-2.838c-0.238-0.402-0.57-0.862-0.996-1.382c-0.426-0.52-0.959-1.099-1.597-1.739
				c-0.99-0.978-1.811-1.842-2.463-2.594c-0.652-0.752-1.135-1.41-1.447-1.974c-0.602-1.102-0.903-2.494-0.903-4.173
				c0-2.269,0.59-4.066,1.767-5.395c1.19-1.34,2.789-2.012,4.794-2.012C249.286,257.958,250.614,258.29,251.88,258.954z"/>
			<path style="fill:#565656;" d="M275.922,258.823v3.515c-1.003-0.489-1.842-0.733-2.518-0.733c-0.928,0-1.723,0.23-2.388,0.687
				c-0.664,0.457-1.212,1.162-1.645,2.115s-0.752,2.159-0.959,3.619c-0.207,1.46-0.31,3.186-0.31,5.179
				c0,7.169,1.836,10.753,5.509,10.753c0.639,0,1.41-0.2,2.312-0.602v3.591c-0.94,0.527-1.993,0.79-3.158,0.79
				c-5.878,0-8.817-4.801-8.817-14.401c0-5.188,0.717-9.047,2.152-11.579c1.435-2.532,3.631-3.798,6.589-3.798
				C273.78,257.958,274.858,258.246,275.922,258.823z"/>
			<path style="fill:#565656;" d="M291.319,258.353h3.045l6.223,29.025h-3.872l-1.091-5.659h-5.752l-1.11,5.659h-3.759
				L291.319,258.353z M295.061,278.694l-0.865-4.626c-0.577-3.145-1.047-6.504-1.41-10.075c-0.176,1.742-0.402,3.505-0.676,5.291
				c-0.276,1.786-0.602,3.681-0.978,5.687l-0.714,3.722H295.061z"/>
			<path style="fill:#565656;" d="M310.851,258.353h3.91v25.717h6.392v3.308h-10.302V258.353z"/>
			<path style="fill:#565656;" d="M331.567,258.353h10.395v3.308h-6.485v9.193h5.752v3.308h-5.752v9.908h6.485v3.308h-10.395
				V258.353z"/>
		</g>
		<g>
			
				<linearGradient id="SVGID_00000150819484920853303980000015545150088780472467_" gradientUnits="userSpaceOnUse" x1="53.2495" y1="271.2876" x2="351.7583" y2="271.2876">
				<stop  offset="0" style="stop-color:#14B063"/>
				<stop  offset="0.1666" style="stop-color:#6FB400"/>
				<stop  offset="0.4152" style="stop-color:#FFFF12"/>
				<stop  offset="0.6957" style="stop-color:#FF9126"/>
				<stop  offset="1" style="stop-color:#C00000"/>
			</linearGradient>
			<path style="fill:url(#SVGID_00000150819484920853303980000015545150088780472467_);" d="M57.163,256.775h10.395v3.308h-6.485
				v9.193h5.752v3.308h-5.752v9.908h6.485v3.308H57.163V256.775z"/>
			
				<linearGradient id="SVGID_00000173873611596826892540000011392627921397404602_" gradientUnits="userSpaceOnUse" x1="53.2495" y1="271.2876" x2="351.7612" y2="271.2876">
				<stop  offset="0" style="stop-color:#14B063"/>
				<stop  offset="0.1666" style="stop-color:#6FB400"/>
				<stop  offset="0.4152" style="stop-color:#FFFF12"/>
				<stop  offset="0.6957" style="stop-color:#FF9126"/>
				<stop  offset="1" style="stop-color:#C00000"/>
			</linearGradient>
			<path style="fill:url(#SVGID_00000173873611596826892540000011392627921397404602_);" d="M80.492,256.775h3.347l2.556,11.843
				c0.314,1.479,0.599,2.961,0.856,4.446c0.256,1.485,0.491,3.043,0.705,4.672c0.025-0.213,0.043-0.379,0.056-0.498
				c0.013-0.118,0.025-0.204,0.038-0.254l0.545-3.327l0.489-3.158l0.432-2.087l2.275-11.636h3.383l2.669,29.025h-3.74l-0.659-9.851
				c-0.025-0.5-0.047-0.934-0.065-1.296c-0.019-0.364-0.028-0.665-0.028-0.903l-0.17-3.891l-0.093-3.571
				c0-0.025-0.003-0.079-0.009-0.16c-0.006-0.081-0.016-0.191-0.028-0.328l-0.094,0.582c-0.101,0.69-0.191,1.291-0.273,1.805
				c-0.081,0.514-0.153,0.946-0.216,1.297l-0.489,2.651l-0.188,0.996l-2.444,12.67h-2.632l-2.294-10.94
				c-0.314-1.441-0.591-2.904-0.836-4.389c-0.244-1.485-0.468-3.043-0.668-4.672L81.789,285.8h-3.685L80.492,256.775z"/>
			
				<linearGradient id="SVGID_00000003802289306384211840000008226210160268727741_" gradientUnits="userSpaceOnUse" x1="53.2494" y1="271.2781" x2="351.7615" y2="271.2781">
				<stop  offset="0" style="stop-color:#14B063"/>
				<stop  offset="0.1666" style="stop-color:#6FB400"/>
				<stop  offset="0.4152" style="stop-color:#FFFF12"/>
				<stop  offset="0.6957" style="stop-color:#FF9126"/>
				<stop  offset="1" style="stop-color:#C00000"/>
			</linearGradient>
			<path style="fill:url(#SVGID_00000003802289306384211840000008226210160268727741_);" d="M123.579,272.001
				c0,5.127-0.569,8.767-1.711,10.923c-1.14,2.155-3.051,3.234-5.733,3.234c-2.82,0-4.807-1.16-5.96-3.478
				c-1.14-2.269-1.711-6.297-1.711-12.088c0-5.164,0.564-8.817,1.692-10.96c1.14-2.155,3.071-3.234,5.791-3.234
				c2.431,0,4.235,0.834,5.413,2.501c0.777,1.116,1.341,2.701,1.693,4.757C123.404,265.56,123.579,268.343,123.579,272.001z
				 M119.481,272.416c0-5.026-0.226-8.359-0.677-10.001c-0.451-1.655-1.372-2.482-2.764-2.482c-1.391,0-2.318,0.758-2.782,2.274
				c-0.452,1.529-0.678,4.6-0.678,9.212c0,4.248,0.238,7.193,0.714,8.836c0.489,1.553,1.405,2.331,2.745,2.331
				c1.316,0,2.218-0.727,2.707-2.181C119.237,278.964,119.481,276.301,119.481,272.416z"/>
			
				<linearGradient id="SVGID_00000122703892034140232570000001377206719920017052_" gradientUnits="userSpaceOnUse" x1="53.2494" y1="271.2876" x2="351.7603" y2="271.2876">
				<stop  offset="0" style="stop-color:#14B063"/>
				<stop  offset="0.1666" style="stop-color:#6FB400"/>
				<stop  offset="0.4152" style="stop-color:#FFFF12"/>
				<stop  offset="0.6957" style="stop-color:#FF9126"/>
				<stop  offset="1" style="stop-color:#C00000"/>
			</linearGradient>
			<path style="fill:url(#SVGID_00000122703892034140232570000001377206719920017052_);" d="M133.11,256.775h12.727v3.421h-4.38
				V285.8h-3.835v-25.603h-4.512V256.775z"/>
			
				<linearGradient id="SVGID_00000050663364189454816650000006855937839435837829_" gradientUnits="userSpaceOnUse" x1="53.2473" y1="271.2876" x2="351.7641" y2="271.2876">
				<stop  offset="0" style="stop-color:#14B063"/>
				<stop  offset="0.1666" style="stop-color:#6FB400"/>
				<stop  offset="0.4152" style="stop-color:#FFFF12"/>
				<stop  offset="0.6957" style="stop-color:#FF9126"/>
				<stop  offset="1" style="stop-color:#C00000"/>
			</linearGradient>
			<path style="fill:url(#SVGID_00000050663364189454816650000006855937839435837829_);" d="M155.969,256.775h3.91V285.8h-3.91
				V256.775z"/>
			
				<linearGradient id="SVGID_00000008832531834710489980000009259022573833218191_" gradientUnits="userSpaceOnUse" x1="53.2484" y1="271.2781" x2="351.7625" y2="271.2781">
				<stop  offset="0" style="stop-color:#14B063"/>
				<stop  offset="0.1666" style="stop-color:#6FB400"/>
				<stop  offset="0.4152" style="stop-color:#FFFF12"/>
				<stop  offset="0.6957" style="stop-color:#FF9126"/>
				<stop  offset="1" style="stop-color:#C00000"/>
			</linearGradient>
			<path style="fill:url(#SVGID_00000008832531834710489980000009259022573833218191_);" d="M186.855,272.001
				c0,5.127-0.57,8.767-1.711,10.923c-1.14,2.155-3.051,3.234-5.733,3.234c-2.82,0-4.807-1.16-5.96-3.478
				c-1.14-2.269-1.711-6.297-1.711-12.088c0-5.164,0.564-8.817,1.692-10.96c1.14-2.155,3.071-3.234,5.791-3.234
				c2.431,0,4.235,0.834,5.413,2.501c0.777,1.116,1.341,2.701,1.693,4.757C186.68,265.56,186.855,268.343,186.855,272.001z
				 M182.757,272.416c0-5.026-0.225-8.359-0.676-10.001c-0.451-1.655-1.372-2.482-2.764-2.482c-1.391,0-2.318,0.758-2.781,2.274
				c-0.452,1.529-0.678,4.6-0.678,9.212c0,4.248,0.238,7.193,0.714,8.836c0.489,1.553,1.404,2.331,2.745,2.331
				c1.316,0,2.218-0.727,2.707-2.181C182.513,278.964,182.757,276.301,182.757,272.416z"/>
			
				<linearGradient id="SVGID_00000098918897716415985180000003659287515485253554_" gradientUnits="userSpaceOnUse" x1="53.25" y1="271.2876" x2="351.7597" y2="271.2876">
				<stop  offset="0" style="stop-color:#14B063"/>
				<stop  offset="0.1666" style="stop-color:#6FB400"/>
				<stop  offset="0.4152" style="stop-color:#FFFF12"/>
				<stop  offset="0.6957" style="stop-color:#FF9126"/>
				<stop  offset="1" style="stop-color:#C00000"/>
			</linearGradient>
			<path style="fill:url(#SVGID_00000098918897716415985180000003659287515485253554_);" d="M198.699,256.775h3.647l3.891,11.579
				c1.128,3.271,2.124,6.762,2.989,10.472c-0.313-2.243-0.545-4.274-0.695-6.092c-0.151-1.817-0.225-3.527-0.225-5.132v-10.827
				h3.929V285.8h-3.667l-4.38-13.065c-0.401-1.215-0.779-2.463-1.137-3.74c-0.357-1.279-0.686-2.619-0.987-4.023
				c-0.025-0.175-0.066-0.388-0.122-0.639c-0.057-0.251-0.123-0.539-0.198-0.865c0.038,0.326,0.069,0.605,0.094,0.837
				c0.025,0.232,0.044,0.429,0.057,0.592l0.207,2.952l0.207,3.591c0.013,0.2,0.022,0.445,0.028,0.733
				c0.006,0.288,0.009,0.614,0.009,0.978l0.207,12.651h-3.854V256.775z"/>
			
				<linearGradient id="SVGID_00000054973333513105683020000017571373544740151981_" gradientUnits="userSpaceOnUse" x1="53.2517" y1="271.2687" x2="351.7589" y2="271.2687">
				<stop  offset="0" style="stop-color:#14B063"/>
				<stop  offset="0.1666" style="stop-color:#6FB400"/>
				<stop  offset="0.4152" style="stop-color:#FFFF12"/>
				<stop  offset="0.6957" style="stop-color:#FF9126"/>
				<stop  offset="1" style="stop-color:#C00000"/>
			</linearGradient>
			<path style="fill:url(#SVGID_00000054973333513105683020000017571373544740151981_);" d="M250.301,257.376v3.817
				c-1.19-0.853-2.262-1.279-3.215-1.279c-1.027,0-1.867,0.364-2.518,1.09c-0.652,0.69-0.978,1.611-0.978,2.764
				c0,1.015,0.232,1.887,0.695,2.613c0.238,0.389,0.629,0.891,1.175,1.504c0.545,0.615,1.25,1.354,2.115,2.218
				c1.592,1.617,2.675,3.014,3.253,4.192c0.577,1.14,0.865,2.538,0.865,4.192c0,2.243-0.633,4.092-1.899,5.545
				c-1.266,1.417-2.889,2.125-4.869,2.125c-1.667,0-3.089-0.457-4.267-1.373v-3.872c1.391,1.015,2.657,1.523,3.797,1.523
				c1.066,0,1.898-0.354,2.501-1.062c0.601-0.708,0.902-1.67,0.902-2.885c0-1.053-0.232-1.999-0.695-2.838
				c-0.238-0.402-0.571-0.862-0.996-1.382c-0.426-0.52-0.959-1.099-1.597-1.739c-0.99-0.978-1.811-1.842-2.463-2.594
				c-0.652-0.752-1.135-1.41-1.447-1.974c-0.602-1.102-0.903-2.494-0.903-4.173c0-2.269,0.589-4.066,1.767-5.395
				c1.191-1.34,2.789-2.012,4.794-2.012C247.707,256.38,249.035,256.712,250.301,257.376z"/>
			
				<linearGradient id="SVGID_00000004540531664563733560000004579231040211857083_" gradientUnits="userSpaceOnUse" x1="53.2486" y1="271.2687" x2="351.7612" y2="271.2687">
				<stop  offset="0" style="stop-color:#14B063"/>
				<stop  offset="0.1666" style="stop-color:#6FB400"/>
				<stop  offset="0.4152" style="stop-color:#FFFF12"/>
				<stop  offset="0.6957" style="stop-color:#FF9126"/>
				<stop  offset="1" style="stop-color:#C00000"/>
			</linearGradient>
			<path style="fill:url(#SVGID_00000004540531664563733560000004579231040211857083_);" d="M274.344,257.245v3.515
				c-1.003-0.489-1.842-0.733-2.518-0.733c-0.928,0-1.723,0.23-2.388,0.687c-0.664,0.457-1.212,1.162-1.645,2.115
				c-0.432,0.952-0.752,2.159-0.959,3.618c-0.207,1.46-0.31,3.186-0.31,5.179c0,7.169,1.837,10.753,5.509,10.753
				c0.639,0,1.41-0.2,2.312-0.602v3.591c-0.94,0.527-1.993,0.79-3.158,0.79c-5.878,0-8.817-4.801-8.817-14.401
				c0-5.188,0.717-9.047,2.152-11.579c1.435-2.532,3.631-3.798,6.589-3.798C272.201,256.38,273.28,256.668,274.344,257.245z"/>
			
				<linearGradient id="SVGID_00000015315684122984792020000007397194923518537356_" gradientUnits="userSpaceOnUse" x1="53.2492" y1="271.2876" x2="351.7604" y2="271.2876">
				<stop  offset="0" style="stop-color:#14B063"/>
				<stop  offset="0.1666" style="stop-color:#6FB400"/>
				<stop  offset="0.4152" style="stop-color:#FFFF12"/>
				<stop  offset="0.6957" style="stop-color:#FF9126"/>
				<stop  offset="1" style="stop-color:#C00000"/>
			</linearGradient>
			<path style="fill:url(#SVGID_00000015315684122984792020000007397194923518537356_);" d="M289.741,256.775h3.045l6.223,29.025
				h-3.872l-1.091-5.658h-5.752l-1.11,5.658h-3.759L289.741,256.775z M293.483,277.116l-0.865-4.625
				c-0.577-3.146-1.047-6.504-1.41-10.075c-0.176,1.742-0.402,3.505-0.676,5.292c-0.276,1.786-0.602,3.681-0.978,5.687l-0.714,3.722
				H293.483z"/>
			
				<linearGradient id="SVGID_00000019636718625547426630000001924567651087948729_" gradientUnits="userSpaceOnUse" x1="53.2506" y1="271.2876" x2="351.7607" y2="271.2876">
				<stop  offset="0" style="stop-color:#14B063"/>
				<stop  offset="0.1666" style="stop-color:#6FB400"/>
				<stop  offset="0.4152" style="stop-color:#FFFF12"/>
				<stop  offset="0.6957" style="stop-color:#FF9126"/>
				<stop  offset="1" style="stop-color:#C00000"/>
			</linearGradient>
			<path style="fill:url(#SVGID_00000019636718625547426630000001924567651087948729_);" d="M309.273,256.775h3.91v25.717h6.392
				v3.308h-10.302V256.775z"/>
			
				<linearGradient id="SVGID_00000023976748736361428110000013520549214658191496_" gradientUnits="userSpaceOnUse" x1="53.2489" y1="271.2876" x2="351.7606" y2="271.2876">
				<stop  offset="0" style="stop-color:#14B063"/>
				<stop  offset="0.1666" style="stop-color:#6FB400"/>
				<stop  offset="0.4152" style="stop-color:#FFFF12"/>
				<stop  offset="0.6957" style="stop-color:#FF9126"/>
				<stop  offset="1" style="stop-color:#C00000"/>
			</linearGradient>
			<path style="fill:url(#SVGID_00000023976748736361428110000013520549214658191496_);" d="M329.989,256.775h10.395v3.308h-6.485
				v9.193h5.752v3.308h-5.752v9.908h6.485v3.308h-10.395V256.775z"/>
		</g>
	</g>
</g>
</svg>
